<?xml version="1.0" encoding="UTF-8"?>
<svg width="32px" height="39px" viewBox="0 0 32 39" version="1.1" xmlns="http://www.w3.org/2000/svg" xmlns:xlink="http://www.w3.org/1999/xlink">
    <!-- Generator: Sketch 55.2 (78181) - https://sketchapp.com -->
    <title>arrow-down</title>
    <desc>Created with Sketch.</desc>
    <g id="Diseño-IU" stroke="none" stroke-width="1" fill="none" fill-rule="evenodd">
        <g id="Pagina-tipo-listado" transform="translate(-115.000000, -698.000000)" fill="#0064E2">
            <g id="arrow-down" transform="translate(115.000000, 694.000000)">
                <path d="M32.8561749,20.4504865 L4.52370121,20.4504865 L13.9271223,11.719058 C14.7961749,10.9099151 14.8527538,9.54534368 14.0493328,8.66534368 C13.2527012,7.7876294 11.8993328,7.73277226 11.028017,8.53734368 L-2.40835142,21.0219151 C-2.83835142,21.4219151 -3.08956195,21.9819151 -3.10087773,22.5716294 C-3.11219352,23.1636294 -2.88135142,23.7327723 -2.46493037,24.1464865 L10.9714381,37.591058 C11.3901223,38.0093437 11.9332802,38.215058 12.4764381,38.215058 C13.0263854,38.215058 13.5785959,38.0024865 13.9972802,37.575058 C14.8278591,36.7293437 14.8233328,35.3602008 13.9814381,34.5213437 L4.23854332,24.7727723 L32.8561749,24.7727723 C34.0352802,24.7727723 34.9948591,23.8059151 34.9948591,22.6104865 C34.9948591,21.4196294 34.0352802,20.4504865 32.8561749,20.4504865" id="Fill-1" transform="translate(15.946792, 23.091841) rotate(-90.000000) translate(-15.946792, -23.091841) "></path>
            </g>
        </g>
    </g>
</svg>