<?xml version="1.0" encoding="utf-8"?>
<!-- Generator: Adobe Illustrator 21.0.2, SVG Export Plug-In . SVG Version: 6.00 Build 0)  -->
<svg version="1.1" id="Capa_1" xmlns="http://www.w3.org/2000/svg" xmlns:xlink="http://www.w3.org/1999/xlink" x="0px" y="0px"
	 viewBox="0 0 32 39" style="enable-background:new 0 0 32 39;" xml:space="preserve">
<style type="text/css">
	.st0{fill:#FFFFFF;}
</style>
<title>arrow-down</title>
<desc>Created with Sketch.</desc>
<g id="Diseño-IU">
	<g id="Pagina-tipo-listado" transform="translate(-115.000000, -698.000000)">
		<g id="arrow-down" transform="translate(115.000000, 694.000000)">
			<path id="Fill-1" class="st0" d="M13.3,6.2v28.3l-8.7-9.4c-0.8-0.9-2.2-0.9-3.1-0.1c-0.9,0.8-0.9,2.1-0.1,3l12.5,13.4
				c0.4,0.4,1,0.7,1.5,0.7c0.6,0,1.2-0.2,1.6-0.6l13.4-13.4c0.4-0.4,0.6-1,0.6-1.5c0-0.5-0.2-1.1-0.6-1.5c-0.8-0.8-2.2-0.8-3.1,0
				l-9.7,9.7V6.2c0-1.2-1-2.1-2.2-2.1C14.3,4,13.3,5,13.3,6.2"/>
		</g>
	</g>
</g>
</svg>
