<?xml version="1.0" encoding="UTF-8"?>
<svg id="Capa_1" xmlns="http://www.w3.org/2000/svg" version="1.1" viewBox="0 0 47 26">
  <!-- Generator: Adobe Illustrator 29.1.0, SVG Export Plug-In . SVG Version: 2.1.0 Build 142)  -->
  <defs>
    <style>
      .st0 {
        fill: #fff;
      }
    </style>
  </defs>
  <g id="Brand_x2F_Flecha">
    <path id="Brand_x2F_Flecha_x5F_2" class="st0" d="M41.7,19.7v1.9h1.8v-1.9h-1.8ZM41.7,23.4v1.9h1.8v-1.9h-1.8ZM38,16v1.9h1.9v-1.9h-1.9ZM38,19.7v1.9h1.9v-1.9h-1.9ZM38,23.4v1.9h1.9v-1.9h-1.9ZM34.3,12.3v1.8h1.9v-1.8h-1.9ZM34.3,16v1.9h1.9v-1.9h-1.9ZM34.3,19.7v1.9h1.9v-1.9h-1.9ZM34.3,23.4v1.9h1.9v-1.9h-1.9ZM30.6,8.6v1.9h1.8v-1.9h-1.8ZM30.6,12.3v1.8h1.8v-1.8h-1.8ZM30.6,16v1.9h1.8v-1.9h-1.8ZM30.6,19.7v1.9h1.8v-1.9h-1.8ZM26.9,4.9v1.9h1.8v-1.9h-1.8ZM26.9,8.6v1.9h1.8v-1.9h-1.8ZM26.9,12.3v1.8h1.8v-1.8h-1.8ZM26.9,16v1.9h1.8v-1.9h-1.8ZM23.1,1.2v1.9h1.9v-1.9h-1.9ZM23.1,4.9v1.9h1.9v-1.9h-1.9ZM23.1,8.6v1.9h1.9v-1.9h-1.9ZM23.1,12.3v1.8h1.9v-1.8h-1.9ZM19.4,4.9v1.9h1.9v-1.9h-1.9ZM19.4,8.6v1.9h1.9v-1.9h-1.9ZM19.4,12.3v1.8h1.9v-1.8h-1.9ZM19.4,16v1.9h1.9v-1.9h-1.9ZM15.7,8.6v1.9h1.8v-1.9h-1.8ZM15.7,12.3v1.8h1.8v-1.8h-1.8ZM15.7,16v1.9h1.8v-1.9h-1.8ZM15.7,19.7v1.9h1.8v-1.9h-1.8ZM12,12.3v1.8h1.9v-1.8h-1.9ZM12,16v1.9h1.9v-1.9h-1.9ZM12,19.7v1.9h1.9v-1.9h-1.9ZM12,23.4v1.9h1.9v-1.9h-1.9ZM8.3,16v1.9h1.9v-1.9h-1.9ZM8.3,19.7v1.9h1.9v-1.9h-1.9ZM8.3,23.4v1.9h1.9v-1.9h-1.9ZM4.6,19.7v1.9h1.8v-1.9h-1.8ZM4.6,23.4v1.9h1.8v-1.9h-1.8Z"/>
  </g>
</svg>