<?xml version="1.0" encoding="UTF-8"?>
<svg width="47px" height="26px" viewBox="0 0 47 26" version="1.1" xmlns="http://www.w3.org/2000/svg" xmlns:xlink="http://www.w3.org/1999/xlink">
    <!-- Generator: Sketch 55.2 (78181) - https://sketchapp.com -->
    <title>back-to-top</title>
    <desc>Created with Sketch.</desc>
    <g id="Diseño-IU" stroke="none" stroke-width="1" fill="none" fill-rule="evenodd">
        <g id="HOME-COMPLETA" transform="translate(-1366.000000, -4540.000000)" fill="#FFFFFF">
            <g id="Group-3" transform="translate(1335.000000, 4501.000000)">
                <path d="M72.7447397,59.5198961 L72.7865879,64.6907096 L78,64.6471475 L77.9625568,59.4806903 L72.7447397,59.5198961 Z M62.3002952,59.5983078 L62.339941,64.7669431 L67.5709733,64.7277373 L67.5357327,59.5612801 L62.3002952,59.5983078 Z M62.2232063,49.28064 L62.2606495,54.4492754 L67.496087,54.4100695 L67.4542387,49.2436123 L62.2232063,49.28064 Z M51.8624584,59.6723632 L51.8999016,64.8431767 L57.1265289,64.8039708 L57.0868832,59.6375136 L51.8624584,59.6723632 Z M51.7809644,49.3568736 L51.8228127,54.527687 L57.04944,54.4884812 L57.0075917,49.322024 L51.7809644,49.3568736 Z M51.7038755,39.0392058 L51.7457238,44.2121974 L56.9701486,44.1708134 L56.9305028,39 L51.7038755,39.0392058 Z M41.4422419,59.7507749 L41.4818876,64.9194102 L46.6930971,64.8823825 L46.6512489,59.7159253 L41.4422419,59.7507749 Z M41.365153,49.4352852 L41.4025962,54.6039206 L46.6138057,54.5668929 L46.57416,49.4004356 L41.365153,49.4352852 Z M31,59.8313647 L31.0352406,65 L36.2530578,64.9586161 L36.2112095,59.7899807 L31,59.8313647 Z" id="back-to-top"></path>
            </g>
        </g>
    </g>
</svg>