<?xml version="1.0" encoding="UTF-8"?>
<svg id="Capa_1" xmlns="http://www.w3.org/2000/svg" version="1.1" viewBox="0 0 16 30">
  <!-- Generator: Adobe Illustrator 29.1.0, SVG Export Plug-In . SVG Version: 2.1.0 Build 142)  -->
  <defs>
    <style>
      .st0 {
        fill: #0064e2;
      }
    </style>
  </defs>
  <g id="Brand_x2F_Flecha">
    <path id="Brand_x2F_Flecha_x5F_2" class="st0" d="M12.1,3.7h1.2v-1.2h-1.2v1.2ZM14.5,3.7h1.2v-1.2h-1.2v1.2ZM9.7,6.1h1.2v-1.2h-1.2v1.2ZM12.1,6.1h1.2v-1.2h-1.2v1.2ZM14.5,6.1h1.2v-1.2h-1.2v1.2ZM7.2,8.5h1.2v-1.2h-1.2v1.2ZM9.7,8.5h1.2v-1.2h-1.2v1.2ZM12.1,8.5h1.2v-1.2h-1.2v1.2ZM14.5,8.5h1.2v-1.2h-1.2v1.2ZM4.8,11h1.2v-1.2h-1.2v1.2ZM7.2,11h1.2v-1.2h-1.2v1.2ZM9.7,11h1.2v-1.2h-1.2v1.2ZM12.1,11h1.2v-1.2h-1.2v1.2ZM2.4,13.4h1.2v-1.2h-1.2v1.2ZM4.8,13.4h1.2v-1.2h-1.2v1.2ZM7.2,13.4h1.2v-1.2h-1.2v1.2ZM9.7,13.4h1.2v-1.2h-1.2v1.2ZM0,15.8h1.2v-1.2H0v1.2ZM2.4,15.8h1.2v-1.2h-1.2v1.2ZM4.8,15.8h1.2v-1.2h-1.2v1.2ZM7.2,15.8h1.2v-1.2h-1.2v1.2ZM2.4,18.2h1.2v-1.2h-1.2v1.2ZM4.8,18.2h1.2v-1.2h-1.2v1.2ZM7.2,18.2h1.2v-1.2h-1.2v1.2ZM9.7,18.2h1.2v-1.2h-1.2v1.2ZM4.8,20.6h1.2v-1.2h-1.2v1.2ZM7.2,20.6h1.2v-1.2h-1.2v1.2ZM9.7,20.6h1.2v-1.2h-1.2v1.2ZM12.1,20.6h1.2v-1.2h-1.2v1.2ZM7.2,23h1.2v-1.2h-1.2v1.2ZM9.7,23h1.2v-1.2h-1.2v1.2ZM12.1,23h1.2v-1.2h-1.2v1.2ZM14.5,23h1.2v-1.2h-1.2v1.2ZM9.7,25.4h1.2v-1.2h-1.2v1.2ZM12.1,25.4h1.2v-1.2h-1.2v1.2ZM14.5,25.4h1.2v-1.2h-1.2v1.2ZM12.1,27.8h1.2v-1.2h-1.2v1.2ZM14.5,27.8h1.2v-1.2h-1.2v1.2Z"/>
  </g>
</svg>