<?xml version="1.0" encoding="UTF-8"?>
<svg width="16px" height="30px" viewBox="0 0 16 30" version="1.1" xmlns="http://www.w3.org/2000/svg" xmlns:xlink="http://www.w3.org/1999/xlink">
    <!-- Generator: Sketch 55.2 (78181) - https://sketchapp.com -->
    <title>ARROW MENU AZUL</title>
    <desc>Created with Sketch.</desc>
    <g id="Diseño-IU" stroke="none" stroke-width="1" fill="none" fill-rule="evenodd">
        <g id="Pagina-tipo-listado" transform="translate(-1360.000000, -66.000000)" fill="#009EE2">
            <g id="ARROW-MENU-AZUL" transform="translate(1360.000000, 66.000000)">
                <path d="M15.6736,0 L12.51584,0.0246666667 L12.53952,3.308 L15.69792,3.28333333 L15.6736,0 Z M12.5632,6.58866667 L12.58688,9.88266667 L15.74592,9.858 L15.72096,6.56333333 L12.5632,6.58866667 Z M6.26048,6.63866667 L6.28224,9.93133333 L9.43936,9.90666667 L9.41696,6.61266667 L6.26048,6.63866667 Z M12.60992,13.1646667 L12.63296,16.4533333 L15.792,16.4286667 L15.76832,13.138 L12.60992,13.1646667 Z M6.30784,13.2133333 L6.32896,16.5033333 L9.48864,16.478 L9.4656,13.1873333 L6.30784,13.2133333 Z M-1.77635684e-15,13.2626667 L0.02368,16.5513333 L3.18528,16.5266667 L3.16032,13.238 L-1.77635684e-15,13.2626667 Z M12.65792,19.732 L12.68096,23.0106667 L15.83872,22.9873333 L15.81504,19.7073333 L12.65792,19.732 Z M6.35584,19.7806667 L6.37696,23.0606667 L9.53536,23.0366667 L9.51168,19.7573333 L6.35584,19.7806667 Z M12.70464,26.304 L12.72896,29.5853333 L12.8064,29.5853333 L15.88736,29.5613333 L15.8624,26.278 L12.70464,26.304 Z" id="Fill-1"></path>
            </g>
        </g>
    </g>
</svg>