<?xml version="1.0" encoding="UTF-8"?>
<svg width="276px" height="69px" viewBox="0 0 276 69" version="1.1" xmlns="http://www.w3.org/2000/svg" xmlns:xlink="http://www.w3.org/1999/xlink">
    <!-- Generator: Sketch 55.2 (78181) - https://sketchapp.com -->
    <title>logo-epic-full-color</title>
    <desc>Created with Sketch.</desc>
    <defs>
        <polygon id="path-1" points="0.302865622 0.323739832 19.7679608 0.323739832 19.7679608 27.143617 0.302865622 27.143617"></polygon>
        <polygon id="path-3" points="0.41662542 0.323739832 19.8753712 0.323739832 19.8753712 27.143617 0.41662542 27.143617"></polygon>
        <polygon id="path-5" points="0.268721809 0.326809149 13.8181117 0.326809149 13.8181117 20.4515392 0.268721809 20.4515392"></polygon>
    </defs>
    <g id="Symbols" stroke="none" stroke-width="1" fill="none" fill-rule="evenodd">
        <g id="LOGO_EPIC_FULL_COLOR">
            <g id="logo-epic-full-color">
                <g id="Group-2">
                    <path d="M16.635196,64.1162417 C15.8291993,63.9444918 15.8390165,63.8126837 16.3907463,63.187594 C17.0229777,62.4736337 16.6950813,62.1730713 17.3312395,61.4601095 C17.9624891,60.7491448 18.2118474,60.9758148 18.8440787,60.2658486 C19.4772918,59.5518883 19.5489578,59.6217865 20.1821708,58.9058291 C20.8153838,58.1908702 20.5748611,57.9721886 21.2100376,57.2592268 C21.8403054,56.5392752 21.5850568,56.3096097 22.221215,55.5956493 C22.8524646,54.8836861 22.7709814,54.8097937 23.4071396,54.0958333 C24.0393709,53.381873 24.0648958,53.4048396 24.6981088,52.6888821 C25.3303401,51.9749218 25.677871,52.2984507 26.3101023,51.5834918 C26.9462606,50.8695315 26.9099367,50.8325853 27.5402046,50.1236177 C28.1743993,49.403666 28.3776166,49.5903941 29.0118113,48.8754352 C29.6440427,48.163472 29.6263716,48.1435011 30.2566395,47.4285422 C30.809351,46.8034525 30.9055601,46.8503841 31.1598271,47.6472238 C31.4513996,48.5618918 32.2004563,48.3112568 32.4920288,49.2269234 C32.7855647,50.1395944 32.7629851,50.1495798 33.0555393,51.0652465 C33.3480935,51.9749218 32.8886459,52.130695 33.178255,53.0443645 C33.4688458,53.958034 33.4197595,53.9730122 33.711332,54.8866817 C34.0029046,55.8063425 34.1226751,55.7664007 34.4162111,56.6750775 C34.7107287,57.5897455 34.5104567,57.654651 34.8020292,58.5683205 C35.0936018,59.4849857 35.0396068,59.501961 35.3301976,60.416629 C35.6256971,61.3293 36.0105335,61.2034832 36.3011243,62.1191499 C36.595642,63.0328194 36.2432025,63.1456551 36.534775,64.0613217 C36.8302744,64.9759897 37.0943586,64.8911133 37.3878946,65.8047829 C37.6784854,66.7174538 37.6411798,66.7384233 37.9317706,67.6480986 C38.1899645,68.4489325 37.6883027,69.1499117 36.8832876,68.9721705 C35.9575203,68.7714628 35.9486848,68.8263828 35.0229175,68.6276722 C34.0981319,68.4219717 34.0735888,68.535806 33.1517484,68.3331011 C32.2249994,68.135389 32.2868481,67.8398195 31.364026,67.6431059 C30.4412039,67.4413996 30.5138516,67.0879144 29.5900477,66.8882052 C28.6642804,66.6874975 28.5710165,67.1468286 27.6452492,66.9471194 C26.7185002,66.7514044 26.6772677,66.9561063 25.7524822,66.7563971 C24.8276966,66.5556894 24.8983808,66.2181809 23.9755587,66.0184717 C23.047828,65.817764 23.0448828,65.8377349 22.1200972,65.6380257 C21.1962934,65.437318 21.2277086,65.2765521 20.3058682,65.0798385 C19.3791192,64.8811279 19.4242786,64.7812733 18.521091,64.4936921 C17.6090679,64.1981225 17.561945,64.3199451 16.635196,64.1162417" id="Fill-22" fill="#0060A4"></path>
                    <path d="M24.0411722,29 C23.6449891,29 23.2623343,28.753305 23.0912992,28.3348604 C22.855522,27.768607 23.0922655,27.1065901 23.618899,26.8536497 L33.5370029,22.0967047 C34.0607375,21.846887 34.6724054,22.0967047 34.9101152,22.6660808 C35.1439599,23.2302524 34.9052837,23.895392 34.3825154,24.1462506 L24.4644116,28.9021547 C24.3281633,28.9708546 24.182252,29 24.0411722,29" id="Fill-24" fill="#0060A4"></path>
                    <path d="M24.0298423,42 C23.5394226,42 23.1157144,41.5981524 23.0652301,41.0568285 L22.0050581,30.1630509 C21.9509677,29.5836881 22.3368126,29.0686988 22.8696031,29.0053005 C23.4032951,28.9477544 23.8801922,29.3652078 23.9387901,29.9445706 L24.9944546,40.8402989 C25.0512495,41.4157603 24.6654046,41.9375771 24.1299096,41.9951232 C24.0965538,42 24.0622966,42 24.0298423,42" id="Fill-26" fill="#93A8D0"></path>
                    <path d="M36.9352052,46 C36.8619988,46 36.7868139,45.9919822 36.7136075,45.9804009 L25.8444362,43.8984426 C25.2676885,43.787975 24.9016565,43.2757259 25.0233374,42.7599134 C25.1460076,42.2405374 25.7089054,41.912698 26.2856531,42.020493 L37.1548244,44.1006696 C37.7335507,44.2093555 38.0976041,44.7207137 37.9769125,45.2400897 C37.8730385,45.6917597 37.4298431,46 36.9352052,46" id="Fill-28" fill="#7B98C6"></path>
                    <path d="M39.1066072,45 C38.920295,45 38.7267774,44.9485211 38.5548761,44.852629 C38.0227025,44.5548589 37.8435958,43.887652 38.1482831,43.3657973 L43.9321961,33.544431 C44.2399715,33.024595 44.9152245,32.845933 45.4453393,33.1447125 C45.9744248,33.4485389 46.157649,34.1106988 45.8519323,34.6345723 L40.070078,44.4508917 C39.8621495,44.8021595 39.4905544,45 39.1066072,45" id="Fill-30" fill="#6288BD"></path>
                    <path d="M44.8880385,33 C44.5809965,33 44.2780897,32.8819979 44.0578879,32.6555101 L36.2877609,24.7141612 C35.8752702,24.290686 35.9104198,23.6426263 36.3663306,23.2667326 C36.8263767,22.8832259 37.5304023,22.9184362 37.9408255,23.3390565 L45.7109524,31.2851635 C46.1275784,31.7057838 46.0872598,32.3547951 45.6323827,32.735447 C45.4194176,32.9114984 45.1506266,33 44.8880385,33" id="Fill-32" fill="#4579B4"></path>
                    <path d="M56.4902718,59.598693 C56.0706549,60.3038977 55.3869086,60.0011143 54.9682884,59.2978443 C54.4858785,58.4920343 53.8968201,58.8238384 53.4164036,58.017061 C52.9389772,57.2141531 53.3735448,56.9665092 52.8951217,56.1616665 C52.4157019,55.3529544 52.6479365,55.225263 52.1665233,54.419453 C51.6881002,53.6126756 51.206687,53.8825688 50.7252737,53.0738566 C50.2488441,52.2680466 50.2488441,52.2680466 49.7674309,51.4593345 C49.2880111,50.6564265 49.0866747,50.7686402 48.6042647,49.9618628 C48.124845,49.1560528 48.2175394,49.1057501 47.7361262,48.2989727 C47.2567064,47.4931627 47.8019094,47.1845752 47.3224896,46.3816672 C46.8440665,45.570053 46.7424016,45.6261598 46.2619851,44.8203498 C45.7825653,44.0155071 45.46561,44.1905991 44.9832001,43.3847891 C44.5017868,42.576077 44.6702316,42.4851452 44.1908118,41.6783678 C43.7701982,40.9731631 44.0612389,40.1276914 44.9034629,40.1228546 C45.860309,40.1228546 45.860309,40.4701365 46.8181519,40.4701365 C47.7789849,40.4701365 47.7789849,40.3550207 48.7348344,40.3550207 C49.6966641,40.3550207 49.6966641,40 50.6565004,40 C51.6163367,40 51.6163367,40.6191097 52.5731829,40.6191097 C53.5350126,40.6191097 53.5350126,40.8619169 54.4958456,40.8619169 C55.4546852,40.8619169 55.4546852,40.0154777 56.4115314,40.0154777 C57.3713677,40.0154777 57.3713677,40.8464391 58.3341941,40.8464391 C59.292037,40.8464391 59.292037,40.4353115 60.2518733,40.4353115 C61.2087195,40.4353115 61.2087195,40.614273 62.1715459,40.614273 C63.1323789,40.614273 63.1323789,40.3685638 64.0942087,40.3685638 C65.0500581,40.3685638 65.0500581,40.654902 66.0118878,40.654902 C66.8501249,40.654902 67.2508043,41.0302373 66.8331808,41.735442 C66.3527643,42.5402847 66.4155573,42.576077 65.9341441,43.3847891 C65.4577144,44.1905991 65.2872762,44.0996674 64.8098498,44.9006406 C64.33043,45.707418 64.2197947,45.6464744 63.7433651,46.4532518 C63.2619518,47.2638986 63.1054676,47.1719995 62.6270445,47.9768422 C62.1486215,48.7855543 62.7037916,49.0980112 62.2263652,49.9047886 C61.7459487,50.7125334 61.1897819,50.3981417 60.7093654,51.2049191 C60.2289489,52.0107291 60.8369449,52.3502721 60.3555316,53.1580169 C59.8751151,53.9647943 59.686736,53.8583848 59.2053228,54.6670969 C58.7249063,55.4729069 58.7079622,55.4574292 58.2245555,56.2661413 C57.7431423,57.073886 57.7531094,57.0593756 57.3663841,57.9154883 C56.9706883,58.7832094 56.9696916,58.7928829 56.4902718,59.598693" id="Fill-34" fill="#93A8D0"></path>
                    <path d="M43.8540643,26.9745532 C43.0494973,27.151309 42.8495805,26.3771385 43.1033964,25.5851937 C43.3905318,24.6796908 43.1523956,24.6036562 43.4434509,23.6991406 C43.7315663,22.7946251 44.0549611,22.8983087 44.3430764,21.9937932 C44.6302118,21.0882902 43.8383845,20.8335249 44.1255199,19.928022 C44.4165752,19.0235065 45.0565049,19.2308735 45.3446203,18.326358 C45.6346956,17.4218425 45.483778,17.3724694 45.7689534,16.4669665 C46.0600087,15.5644259 46.2746253,15.6295984 46.5647006,14.7270578 C46.851836,13.8225423 46.4882618,13.7050343 46.7783372,12.8005188 C47.0664525,11.8960033 46.8410562,11.824906 47.1321115,10.9184156 C47.4231668,10.0099502 47.409447,10.0050129 47.6995223,9.10049738 C47.9856777,8.19499442 48.0229171,8.20980635 48.3110325,7.30529085 C48.6011078,6.39485057 49.2449574,6.60419258 49.5330728,5.69868962 C49.7868887,4.91168213 49.8780272,4.76751263 50.4317183,5.37875182 C51.067728,6.08577485 51.133387,6.02257726 51.7664568,6.72861284 C52.3965866,7.43069856 52.307408,7.51167048 52.9414578,8.2137562 C53.5764876,8.9217667 53.7920841,8.72427423 54.4251539,9.42833488 C55.0592037,10.1323955 54.9514054,10.2301543 55.5825153,10.9381648 C56.217545,11.6422255 56.6046388,11.2827892 57.2396686,11.9898122 C57.8727383,12.6928854 57.6199024,12.9259265 58.2480723,13.6329495 C58.8821221,14.3389851 58.6645656,14.537465 59.2976354,15.2435006 C59.9316852,15.9475613 60.2942793,15.6118241 60.933229,16.3188471 C61.5633589,17.0209328 61.4085214,17.1611525 62.0445311,17.8671881 C62.6766209,18.5742111 62.5266833,18.708506 63.1617131,19.4145415 C63.7947829,20.1215646 64.0897581,19.8519874 64.7257679,20.5590104 C65.277499,21.1712371 64.9521442,22.3996402 64.1475772,22.5734336 C63.2234521,22.7778383 63.1450534,22.4026026 62.2228882,22.6060198 C61.2997431,22.8025248 61.3213028,22.8983087 60.3991376,23.099751 C59.4759925,23.3031682 59.4906923,23.362416 58.5695071,23.5638583 C57.646362,23.7633257 57.6424421,23.7485138 56.7222369,23.951931 C55.8000718,24.1504109 55.7765521,24.0457399 54.854387,24.2491572 C53.9322219,24.4456622 53.924382,24.4022138 53.0012369,24.6036562 C52.0790717,24.8070734 52.1114112,24.9660548 51.191206,25.1674971 C50.2670809,25.3649896 50.2866806,25.4508988 49.3654955,25.6523412 C48.4443103,25.8557584 48.3845313,25.577294 47.4613862,25.7797238 C46.538241,25.9782037 46.5441209,25.9712915 45.6572352,26.2961666 C44.74291,26.627954 44.7781894,26.7770608 43.8540643,26.9745532" id="Fill-36" fill="#7B98C6"></path>
                    <path d="M10.5239232,10.2005276 C9.85540375,9.7099224 9.78845334,9.43780534 10.5455837,9.09914871 C11.4129852,8.70984255 11.2101649,8.25201056 12.0726437,7.8627044 C12.9420144,7.47240512 12.9124774,7.40983806 13.7769253,7.01953877 C14.6433423,6.63122574 14.9337889,7.29662147 15.8002059,6.90830844 C16.6676075,6.51800915 16.6882834,6.56865868 17.5547004,6.18431816 C18.4201328,5.79401887 18.3709046,5.68080228 19.2383062,5.29745489 C20.1076769,4.9071556 19.8851652,4.40363973 20.7486286,4.0153267 C21.6160301,3.62701367 21.9064768,4.28347125 22.7719092,3.8981376 C23.6383262,3.50982457 23.5083637,3.21387244 24.3747807,2.82456628 C25.2411977,2.43625325 25.2392286,2.43128761 26.1076147,2.04297458 C26.9730472,1.65764093 26.8381618,1.34480562 27.7055634,0.955499464 C28.5700112,0.567186433 28.5266904,0.468866765 29.394092,0.08253999 C30.1502377,-0.257109771 31.0836051,0.508591884 30.9940098,1.3368606 C30.8925996,2.28728405 30.5233878,2.25053832 30.4229622,3.19996865 C30.3254903,4.15138523 30.2034042,4.13847457 30.1049477,5.08889802 C30.0035376,6.03832835 29.8893281,6.02442456 29.7908716,6.97484801 C29.6884768,7.92626459 30.2280183,7.98585227 30.1295619,8.93627573 C30.0291363,9.88570605 29.9700624,9.88074041 29.8716059,10.8271914 C29.7721649,11.7815873 29.4817182,11.7508004 29.3832618,12.7022169 C29.2828362,13.6526404 29.4718726,13.6754823 29.3744007,14.619947 C29.2720059,15.5753361 29.0642628,15.551501 28.9658063,16.5029176 C28.8653807,17.452348 29.2818516,17.4940593 29.181426,18.4494484 C29.0829695,19.400865 28.6783134,19.3591536 28.5788723,20.308584 C28.4804158,21.2590074 28.8604579,21.2987325 28.7590477,22.2501491 C28.6743751,23.079411 27.9585965,23.2015657 27.2890925,22.7119536 C26.5240856,22.1508363 26.2415155,22.5391494 25.4745395,21.9750527 C24.7075636,21.4149285 25.0393619,20.9570965 24.2723859,20.3949861 C23.5073791,19.8348619 23.3025896,20.114924 22.5356137,19.5547998 C21.7715914,18.9926894 21.7578075,19.0145382 20.9868932,18.4494484 C20.2248401,17.8883311 20.0446647,18.13562 19.2776888,17.5764889 C18.5107128,17.0094129 18.5294195,16.9865709 17.7604744,16.4264468 C16.994483,15.8603638 17.3371116,15.3906143 16.5681665,14.8245314 C15.8021751,14.2614278 15.8888168,14.1452319 15.1238099,13.5841146 C14.356834,13.0180316 14.1244767,13.3398051 13.3565161,12.7786878 C12.5924939,12.2175705 12.8140209,11.9682954 12.1179336,11.3187897 C11.4070779,10.6593527 11.2908992,10.7646243 10.5239232,10.2005276" id="Fill-38" fill="#6288BD"></path>
                    <path d="M3.44578094,48.6911226 C2.77097082,49.1833672 2.68501404,49.1154714 2.59806926,48.2827493 C2.50124438,47.3272157 2.35501905,47.3391973 2.25819418,46.3836637 C2.16038129,45.4291285 2.20484169,45.4241362 2.10505279,44.4676041 C2.00526389,43.5140674 1.56164787,43.5570016 1.465811,42.6024664 C1.36503409,41.6469328 1.13087596,41.6688991 1.03207507,40.714364 C0.936238202,39.7588303 1.44605082,39.7039146 1.34922594,38.7493795 C1.24943704,37.7948443 1.14767212,37.8058275 1.04491919,36.8502939 C0.949082318,35.8957587 1.01527892,35.887771 0.919442049,34.9312389 C0.821629163,33.9757053 0.588459051,33.9976716 0.491634174,33.042138 C0.392833279,32.0876029 0.158675158,32.1095691 0.0608622715,31.1540355 C-0.0399146415,30.1975035 0.118166791,30.179531 0.0203539045,29.2249959 C-0.0764709727,28.26447 0.209063614,28.2375113 0.10927471,27.2779839 C0.0243059403,26.4432648 0.685283928,25.7473328 1.44308679,26.0888088 C2.31055865,26.4792097 2.05960438,27.0493347 2.92707624,27.444728 C3.7955361,27.8371258 4.00894604,27.3498735 4.87839391,27.7422713 C5.74685378,28.1326722 5.61149656,28.4382033 6.47798041,28.8325981 C7.34841629,29.2249959 7.42943302,29.037284 8.29591687,29.4286833 C9.16832878,29.8220796 9.22168126,29.6982696 10.0901411,30.089669 C10.957613,30.4780729 10.957613,30.4830652 11.8270609,30.87746 C12.6935447,31.2678609 12.730101,31.1859865 13.6005369,31.5743905 C14.4689968,31.9677867 14.2960952,32.3501999 15.1665311,32.7425977 C16.035979,33.1329986 15.9016098,33.4385297 16.7700696,33.8289306 C17.6414935,34.2213284 17.9625964,33.4964408 18.8310563,33.8888386 C19.7014922,34.280238 19.4979624,34.7445255 20.3654342,35.1349263 C21.1242251,35.4764023 21.224014,36.0095841 20.5482159,36.4998317 C19.7775689,37.0649644 19.8042451,37.1049032 19.0345862,37.6650435 C18.2669032,38.2301763 18.4042364,38.4198851 17.6355655,38.9860163 C16.8649185,39.5491521 16.6663287,39.2715781 15.8976577,39.8357124 C15.1260227,40.3998466 15.2406318,40.5536107 14.4689968,41.1197419 C13.7003258,41.6828776 13.6667335,41.6389451 12.8950985,42.2020809 C12.1244516,42.7682121 11.9051136,42.4616825 11.1364426,43.0268152 C10.3667836,43.5909495 10.3885198,43.6159112 9.61490882,44.1870347 C8.84722587,44.7441797 8.86599804,44.7741337 8.09139902,45.3372695 C7.32470408,45.9014038 7.49760564,46.1430329 6.72794667,46.7071672 C5.95729969,47.2713015 6.20232591,47.7046365 5.37733843,48.183901 C4.5345668,48.6691563 4.21642792,48.1259898 3.44578094,48.6911226" id="Fill-40" fill="#4579B4"></path>
                </g>
                <g id="Group" transform="translate(87.000000, 26.000000)">
                    <path d="M5.97345133,9.90670734 C5.19563171,10.2205275 4.52050461,10.6719697 3.95417059,11.2610341 C3.38275278,11.8511411 2.92622858,12.5590609 2.57239691,13.3847936 C2.22364903,14.2063559 1.98877801,15.1290497 1.87490115,16.1518323 L14.4399925,16.1518323 C14.4399925,15.1050701 14.2956129,14.1656949 14.018038,13.3337066 C13.7363962,12.5027609 13.3439277,11.7990115 12.8294483,11.2245434 C12.3170024,10.6479901 11.7069478,10.2069738 10.9921672,9.89836661 C10.275353,9.58975943 9.48431557,9.43754103 8.61600452,9.43754103 C7.63381661,9.43754103 6.7522877,9.59497239 5.97345133,9.90670734 M11.5757861,8.60972313 C12.4898513,8.98922655 13.2808887,9.54805576 13.9478818,10.2726571 C14.6209753,10.9972584 15.1435888,11.8938873 15.5197891,12.9542032 C15.8970062,14.0124339 16.0851064,15.2291385 16.0851064,16.6011893 C16.0851064,16.8920724 16.0434193,17.0880797 15.9590284,17.1923389 C15.8766711,17.2965981 15.7455093,17.3487277 15.5675767,17.3487277 L1.79864432,17.3487277 L1.79864432,17.7240607 C1.79864432,19.19203 1.96437582,20.4796308 2.29787234,21.5899911 C2.62831858,22.7024366 3.10212766,23.638684 3.71218226,24.3893501 C4.32732066,25.1410588 5.06548673,25.7113565 5.93684805,26.0898174 C6.80312559,26.466193 7.77412917,26.6559447 8.84579175,26.6559447 C9.80357748,26.6559447 10.6332517,26.5516855 11.3348145,26.3337838 C12.0384108,26.1190099 12.6271135,25.8771286 13.1080399,25.6070973 C13.5869328,25.342279 13.9661834,25.0983125 14.244775,24.8783257 C14.5274336,24.6656369 14.7328187,24.5551222 14.8578799,24.5551222 C15.0276784,24.5551222 15.1537564,24.6239333 15.2411975,24.7552998 L15.7414423,25.3839827 C15.4333647,25.7728694 15.0286952,26.1440321 14.5223498,26.4797467 C14.0210883,26.8217168 13.4578046,27.1115573 12.8385991,27.3555238 C12.2214272,27.5974051 11.5564677,27.7913272 10.8477876,27.9341623 C10.1401243,28.0769973 9.42636038,28.1489362 8.7125965,28.1489362 C7.40911316,28.1489362 6.22357371,27.9206086 5.14987761,27.4524848 C4.07821503,26.9895741 3.15601582,26.3087616 2.3924308,25.4225586 C1.62884579,24.5332278 1.03505931,23.4385064 0.622255696,22.1519481 C0.20538505,20.8633046 0,19.3869946 0,17.7240607 C0,16.3217747 0.193183958,15.0300035 0.580568631,13.8466618 C0.972020335,12.6601923 1.53327057,11.6374097 2.26736961,10.7814419 C3.00451892,9.92547399 3.90333271,9.25404487 4.96889475,8.76819709 C6.03344003,8.28234931 7.24439842,8.04255319 8.59566937,8.04255319 C9.66936547,8.04568097 10.6627377,8.23126231 11.5757861,8.60972313" id="Fill-1" fill="#403F41"></path>
                    <g id="Group-5" transform="translate(18.095745, 8.042553)">
                        <mask id="mask-2" fill="white">
                            <use xlink:href="#path-1"></use>
                        </mask>
                        <g id="Clip-4"></g>
                        <path d="M17.8134087,10.3167668 C17.8134087,7.40300395 17.2715946,5.26283414 16.1879664,3.89208149 C15.1053964,2.52654875 13.5402732,1.84065043 11.4957716,1.84065043 C10.181449,1.84065043 8.98776484,2.17890166 7.91683539,2.85018419 C6.84590594,3.52773063 5.90196417,4.46836135 5.07760246,5.67312036 L5.07760246,15.9407155 C5.83529563,17.0671756 6.67341433,17.8574724 7.60042441,18.3178699 C8.52002688,18.7761795 9.57508287,19.0027243 10.759243,19.0027243 C11.9285879,19.0027243 12.9508387,18.7928832 13.8249373,18.3752891 C14.7032688,17.956651 15.4376809,17.3615794 16.0292318,16.5973822 C16.6207828,15.8290091 17.0673561,14.910302 17.3657772,13.846481 C17.6663147,12.7743082 17.8134087,11.5987807 17.8134087,10.3167668 M19.7679608,10.3167668 C19.7679608,11.7428507 19.5764211,13.0760199 19.1975745,14.3173184 C18.8197861,15.552353 18.2631568,16.6287018 17.5329776,17.5411449 C16.8049149,18.4504561 15.9033024,19.1697619 14.8344894,19.6938425 C13.7625017,20.2158352 12.5296629,20.4778755 11.1338567,20.4778755 C9.78037962,20.4778755 8.61209295,20.2346269 7.62899664,19.7543937 C6.64378387,19.2710285 5.7961411,18.5465027 5.07760246,17.5923002 L5.07760246,25.5871394 C5.43951736,25.6017552 5.76333595,25.614283 6.04694177,25.6268108 C6.33054759,25.6362067 6.53372788,25.6445586 6.64907503,25.6497785 C6.76442217,25.6529105 6.86707055,25.6529105 6.94855431,25.6581304 C7.03321277,25.6633503 7.10623068,25.6633503 7.16020045,25.6664823 C7.68825756,25.6904939 7.95069877,25.9243466 7.95069877,26.3638644 L7.95069877,27.1437214 L5.07760246,27.1437214 L3.18442777,27.1437214 L0.302865622,27.1437214 L0.302865622,26.3638644 C0.302865622,25.9243466 0.568481523,25.6904939 1.09124748,25.6664823 C1.16214894,25.6633503 1.24998208,25.6633503 1.35157223,25.6581304 C1.4542206,25.6529105 1.67115789,25.6445586 2.00026764,25.6362067 C2.33255207,25.6215909 2.72727212,25.6069751 3.18442777,25.5871394 L3.18442777,2.21648513 C2.82145465,2.2039573 2.49869429,2.18620955 2.212972,2.17890166 C1.92195857,2.16950579 1.72195297,2.16010992 1.60766405,2.15697797 C1.49125868,2.15697797 1.39178499,2.14967007 1.30606831,2.14653811 C1.22352632,2.14131819 1.15262486,2.14131819 1.09124748,2.13609826 C0.568481523,2.11313059 0.302865622,1.87927788 0.302865622,1.44289204 L0.302865622,0.660947074 L3.18442777,0.660947074 L4.21937738,0.660947074 C4.39186898,0.660947074 4.53261366,0.694354603 4.63843673,0.767433572 C4.7442598,0.842600511 4.80563718,0.964746788 4.81727772,1.15162015 L4.99717693,4.17813345 C5.87233371,2.99843009 6.90093393,2.05884335 8.07768645,1.36459315 C9.25338074,0.669298957 10.5698197,0.323739832 12.0312363,0.323739832 C14.4768074,0.323739832 16.3773897,1.15684008 17.7308667,2.82199658 C19.0885767,4.48715309 19.7679608,6.98540984 19.7679608,10.3167668" id="Fill-3" fill="#403F41" mask="url(#mask-2)"></path>
                    </g>
                    <path d="M44.2682295,2.4190492 C44.1845687,2.21484375 44.1398199,1.99597739 44.1398199,1.7572141 C44.1398199,1.51530918 44.1845687,1.2933012 44.2682295,1.07967088 C44.3518903,0.861851729 44.4676535,0.671259973 44.6164919,0.515226064 C44.7633846,0.358144947 44.9345974,0.235621676 45.1281846,0.137184176 C45.3246901,0.0481715426 45.5328693,0 45.7546677,0 C45.971602,0.00523603723 46.1788084,0.0481715426 46.375314,0.137184176 C46.5727923,0.235621676 46.7420595,0.358144947 46.8870067,0.515226064 C47.0348723,0.671259973 47.1554994,0.861851729 47.2459698,1.07967088 C47.3364402,1.2933012 47.3821618,1.52263963 47.3821618,1.7572141 C47.3821618,1.99597739 47.3364402,2.21484375 47.2459698,2.4190492 C47.1554994,2.61906582 47.0348723,2.80127992 46.8870067,2.96045545 C46.7420595,3.11753657 46.5679283,3.24215426 46.375314,3.33745013 C46.1788084,3.42646277 45.971602,3.47463431 45.7546677,3.47463431 C45.5328693,3.47463431 45.3227445,3.42646277 45.1281846,3.33745013 C44.9345974,3.24634309 44.7633846,3.11753657 44.6164919,2.96045545 C44.4676535,2.80127992 44.3518903,2.61906582 44.2682295,2.4190492 M49.2606383,27.360389 L49.2606383,28.1489362 L46.6146227,28.1489362 L44.8723382,28.1489362 L42.2234043,28.1489362 L42.2234043,27.360389 C42.2234043,26.921609 42.4685498,26.694365 42.9510585,26.663996 C43.0142905,26.663996 43.0921145,26.6577128 43.1903673,26.6545711 C43.2847289,26.6493351 43.4802616,26.6461935 43.784748,26.6325798 C44.0911799,26.6168717 44.4520887,26.6022108 44.8723382,26.583361 L44.8723382,10.0835605 C44.5415863,10.070994 44.2419639,10.0542387 43.9812536,10.045861 C43.7137336,10.0364362 43.5308472,10.0270113 43.4228665,10.0238697 C43.3168313,10.0165392 43.2263609,10.0165392 43.1465913,10.0133976 C43.0716857,10.0081616 43.0035897,10.0081616 42.9510585,10.0029255 C42.4685498,9.97988697 42.2234043,9.7453125 42.2234043,9.30757979 L42.2234043,8.52322141 L44.8723382,8.52322141 L46.6146227,8.52322141 L46.6146227,26.583361 C46.9453747,26.5969747 47.2440242,26.6126828 47.5066802,26.6221077 C47.7703089,26.6357214 47.9570865,26.6409574 48.0640945,26.6461935 C48.1701297,26.6493351 48.2606001,26.6545711 48.338424,26.6545711 C48.4191664,26.6577128 48.4823984,26.663996 48.5339568,26.663996 C49.0193839,26.694365 49.2606383,26.921609 49.2606383,27.360389" id="Fill-6" fill="#403F41"></path>
                    <path d="M67.356383,25.3834669 C67.0540366,25.7724123 66.6745397,26.1436309 66.2168498,26.479396 C65.7591599,26.8214176 65.2430859,27.1186011 64.6665426,27.3646898 C64.0899993,27.6118213 63.4654976,27.8068153 62.7909524,27.9444582 C62.1153646,28.0810583 61.4137124,28.1519652 60.6797405,28.1489362 C59.4369925,28.1489362 58.3026722,27.9256887 57.2726093,27.4741784 C56.2446316,27.0226682 55.3594864,26.3667791 54.6223868,25.5106823 C53.8842445,24.6514572 53.3077012,23.6014091 52.8927569,22.356367 C52.4809402,21.1144531 52.2765957,19.6994428 52.2765957,18.1155073 C52.2765957,16.6254192 52.471557,15.2604609 52.8656499,14.0300172 C53.2555725,12.7985308 53.8300307,11.7380552 54.5806838,10.8496332 C55.3365498,9.95599737 56.258185,9.26778312 57.3508024,8.77769115 C58.4434197,8.28447093 59.6986785,8.04255319 61.111366,8.04255319 C61.5648856,8.04255319 62.2508992,8.14369983 63.1631512,8.34703586 C64.0743607,8.55141464 64.8729722,8.75475067 65.5589858,8.95912945 L66.5880061,9.26465487 L66.5880061,14.1916433 L65.6330085,14.1916433 C65.0992107,14.1916433 64.8156307,13.8725621 64.7864386,13.2396136 C64.7822683,13.1833051 64.7666297,13.0216791 64.7395228,12.7620346 C64.7134584,12.4950909 64.6790535,12.129086 64.6404783,11.6629773 C64.6008605,11.2010395 64.5674981,10.7088621 64.5403912,10.1801884 C63.2945155,9.73284911 62.1841744,9.5149146 61.2083254,9.5149146 C60.0823457,9.5149146 59.0846026,9.71407963 58.2161386,10.1134525 C57.3445469,10.5128253 56.6074472,11.0821662 56.0152653,11.8298171 C55.4189131,12.5753825 54.9653935,13.4773603 54.6526214,14.5388787 C54.335679,15.6014398 54.1803355,16.7912162 54.1803355,18.1155073 C54.1803355,19.4898503 54.3377641,20.7067383 54.6599194,21.7651284 C54.9810321,22.825604 55.4366369,23.718197 56.0256911,24.4470785 C56.6147453,25.1717889 57.3278657,25.7307023 58.1671376,26.1102629 C59.0043244,26.4856525 59.9311725,26.6754328 60.9539374,26.6754328 C61.8974666,26.6754328 62.686695,26.5680297 63.3184947,26.3427959 C63.9565499,26.1186049 64.4778368,25.8766872 64.890696,25.6170427 C65.3035552,25.35427 65.6319659,25.1113095 65.8738431,24.8881612 C66.1157202,24.6702267 66.3075538,24.5544816 66.4524715,24.5544816 C66.6213685,24.5544816 66.7537753,24.623303 66.8455218,24.7505184 L67.356383,25.3834669 Z" id="Fill-8" fill="#403F41"></path>
                    <g id="Group-12" transform="translate(78.414894, 8.042553)">
                        <mask id="mask-4" fill="white">
                            <use xlink:href="#path-3"></use>
                        </mask>
                        <g id="Clip-11"></g>
                        <path d="M17.9229356,10.3167668 C17.9229356,7.40300395 17.3821797,5.26283414 16.2985515,3.89208149 C15.2170398,2.52654875 13.6529748,1.84065043 11.6052984,1.84065043 C10.2909759,1.84065043 9.09729171,2.17890166 8.02847872,2.85018419 C6.9586075,3.52773063 6.01043281,4.46836135 5.18607111,5.67312036 L5.18607111,15.9407155 C5.94482251,17.0671756 6.78823236,17.8574724 7.7067766,18.3178699 C8.6348449,18.7772235 9.68460974,19.0027243 10.8677116,19.0027243 C12.0381148,19.0027243 13.0614239,18.7928832 13.9397553,18.3752891 C14.8138539,17.956651 15.5493242,17.3615794 16.1419334,16.5973822 C16.7324261,15.8290091 17.1747665,14.910302 17.4731876,13.846481 C17.7716086,12.7743082 17.9229356,11.5987807 17.9229356,10.3167668 M19.8753712,10.3167668 C19.8753712,11.7428507 19.6880644,13.0760199 19.3092178,14.3173184 C18.929313,15.552353 18.3748001,16.6287018 17.6446209,17.5411449 C16.9144418,18.4504561 16.0128292,19.1697619 14.9450745,19.6938425 C13.874145,20.2158352 12.6413063,20.4778755 11.2497329,20.4778755 C9.89202296,20.4778755 8.72161982,20.2346269 7.73852352,19.7543937 C6.75648544,19.2710285 5.90355151,18.5465027 5.18607111,17.5923002 L5.18607111,25.5871394 C5.547986,25.6017552 5.87074636,25.614283 6.15752688,25.6268108 C6.44536562,25.6362067 6.64219653,25.6445586 6.75966013,25.6497785 C6.87606551,25.6529105 6.97342273,25.6529105 7.06019765,25.6581304 C7.14168141,25.6633503 7.21681579,25.6633503 7.27396025,25.6664823 C7.7999009,25.6904939 8.06234211,25.9243466 8.06234211,26.3638644 L8.06234211,27.1437214 L5.18607111,27.1437214 L3.29501288,27.1437214 L0.41662542,27.1437214 L0.41662542,26.3638644 C0.41662542,25.9243466 0.678008399,25.6904939 1.20712374,25.6664823 C1.27696697,25.6633503 1.36162542,25.6633503 1.46321557,25.6581304 C1.56268925,25.6529105 1.781743,25.6445586 2.11402744,25.6362067 C2.44313718,25.6215909 2.83574076,25.6069751 3.29501288,25.5871394 L3.29501288,2.21648513 C2.93309798,2.2039573 2.6092794,2.18620955 2.32144065,2.17890166 C2.0367766,2.16950579 1.8335963,2.16010992 1.71719093,2.15697797 C1.60290202,2.15697797 1.50131187,2.14967007 1.41876988,2.14653811 C1.33093673,2.14131819 1.26215174,2.14131819 1.20712374,2.13609826 C0.678008399,2.11313059 0.41662542,1.87927788 0.41662542,1.44289204 L0.41662542,0.660947074 L3.29501288,0.660947074 L4.33313718,0.660947074 C4.50351232,0.660947074 4.64319877,0.694354603 4.74902184,0.767433572 C4.85378667,0.842600511 4.91516405,0.964746788 4.92997928,1.15162015 L5.10776204,4.17813345 C5.98609351,2.99843009 7.01257727,2.05884335 8.18721333,1.36459315 C9.36290761,0.669298957 10.6835795,0.323739832 12.1460543,0.323739832 C14.5905672,0.323739832 16.4900913,1.15684008 17.846743,2.82199658 C19.2012783,4.48715309 19.8753712,6.98540984 19.8753712,10.3167668" id="Fill-10" fill="#403F41" mask="url(#mask-4)"></path>
                    </g>
                    <path d="M112.694264,26.0771988 C113.576699,25.6778655 114.315063,25.1075382 114.906178,24.3620464 C115.498352,23.6175972 115.943277,22.7146659 116.232479,21.6626362 C116.528036,20.6064359 116.672107,19.4251182 116.672107,18.1165976 C116.672107,16.8226741 116.528036,15.6434416 116.232479,14.5830707 C115.943277,13.5216572 115.498352,12.615598 114.906178,11.8596797 C114.315063,11.1079321 113.576699,10.5282209 112.694264,10.1257596 C111.807591,9.71704246 110.771551,9.51164122 109.589321,9.51164122 C108.407091,9.51164122 107.369992,9.71704246 106.486498,10.1257596 C105.601944,10.5282209 104.86252,11.1079321 104.273524,11.8596797 C103.679231,12.615598 103.236425,13.5216572 102.93557,14.5830707 C102.636835,15.6434416 102.487467,16.8226741 102.487467,18.1165976 C102.487467,19.4251182 102.636835,20.6064359 102.93557,21.6626362 C103.236425,22.7146659 103.679231,23.6175972 104.273524,24.3620464 C104.86252,25.1075382 105.601944,25.6778655 106.486498,26.0771988 C107.369992,26.4786175 108.407091,26.6808908 109.589321,26.6808908 C110.771551,26.6808908 111.807591,26.4786175 112.694264,26.0771988 M113.410382,8.75676561 C114.534347,9.23638271 115.481403,9.91097459 116.253666,10.7899251 C117.025929,11.6720035 117.613866,12.7250758 118.018536,13.9647817 C118.423206,15.2003171 118.62766,16.5828655 118.62766,18.1165976 C118.62766,19.6482444 118.423206,21.0318355 118.018536,22.2611149 C117.613866,23.4924797 117.025929,24.5413815 116.253666,25.4224172 C115.481403,26.300325 114.534347,26.9749169 113.410382,27.4461929 C112.288534,27.9164261 111.013082,28.1489362 109.589321,28.1489362 C108.164501,28.1489362 106.892227,27.9164261 105.76932,27.4461929 C104.646414,26.9749169 103.694062,26.300325 102.914384,25.4224172 C102.135764,24.5413815 101.546768,23.4924797 101.139979,22.2611149 C100.733191,21.0318355 100.531915,19.6482444 100.531915,18.1165976 C100.531915,16.5828655 100.733191,15.2003171 101.139979,13.9647817 C101.546768,12.7250758 102.135764,11.6720035 102.914384,10.7899251 C103.694062,9.91097459 104.646414,9.23638271 105.76932,8.75676561 C106.892227,8.28236174 108.164501,8.04255319 109.589321,8.04255319 C111.013082,8.04255319 112.288534,8.28236174 113.410382,8.75676561" id="Fill-13" fill="#403F41"></path>
                    <path d="M152.808511,8.14090775 L152.808511,8.90036718 C152.808511,9.32420436 152.55404,9.55133241 152.034711,9.57363963 C151.974469,9.57870946 151.905918,9.57870946 151.834251,9.58377928 C151.758429,9.58682117 151.610939,9.59391892 151.389706,9.60101668 C151.168472,9.6060865 150.927503,9.61521218 150.665762,9.62230993 L144.65921,27.143617 L143.290261,27.143617 C143.080452,27.143617 142.930886,27.0097737 142.840523,26.7420871 L137.500789,11.3115748 C137.433276,11.1189216 137.378227,10.9282962 137.326294,10.7386849 C137.272284,10.5450177 137.225545,10.3503365 137.187114,10.1657949 C137.144529,10.3655459 137.101944,10.5531294 137.059359,10.7386849 C137.014697,10.9282962 136.959648,11.1189216 136.895252,11.3115748 L131.493198,26.7420871 C131.41426,27.0097737 131.259501,27.143617 131.024764,27.143617 L129.716057,27.143617 L123.706389,9.62230993 C123.514238,9.61521218 123.326241,9.61115632 123.153824,9.60101668 C122.982445,9.59696082 122.860923,9.59391892 122.785101,9.58682117 C122.712395,9.58682117 122.647998,9.58377928 122.582563,9.58377928 C122.521282,9.57870946 122.467272,9.57870946 122.419494,9.57363963 C121.903281,9.55133241 121.643617,9.32420436 121.643617,8.90036718 L121.643617,8.14090775 L123.200563,8.14090775 L124.628716,8.14090775 L128.462398,8.14090775 L128.462398,8.90036718 C128.462398,9.32420436 128.202734,9.55133241 127.686522,9.57363963 C127.614854,9.57870946 127.533839,9.58377928 127.444515,9.58377928 C127.352074,9.58682117 127.143304,9.59696082 126.811973,9.61115632 C126.480641,9.62129597 126.097377,9.6344775 125.660102,9.6517149 L130.22396,23.5916993 C130.313284,23.8796652 130.38599,24.1625613 130.437923,24.4302479 C130.528286,24.8926158 130.581258,25.1613164 130.59476,25.230266 C130.661234,24.9615654 130.731863,24.6928648 130.808724,24.4302479 C130.8887,24.1625613 130.978025,23.8867629 131.080852,23.5916993 L136.307372,8.4653764 C136.395658,8.18349426 136.5795,8.04255319 136.853705,8.04255319 L137.616079,8.04255319 C137.90171,8.04255319 138.092823,8.18349426 138.185263,8.4653764 L143.328691,23.5916993 C143.524997,24.1625613 143.682873,24.7171999 143.799203,25.2495313 C143.850097,24.9950262 143.905146,24.7253116 143.964349,24.4393736 C144.023552,24.1676311 144.104568,23.8796652 144.208433,23.5916993 L148.793064,9.6517149 C148.445114,9.63954733 148.129362,9.62940768 147.845809,9.61521218 C147.55914,9.6060865 147.364911,9.59696082 147.256891,9.59391892 C147.149909,9.59391892 147.055391,9.58682117 146.974376,9.58377928 C146.895438,9.57870946 146.825848,9.57870946 146.769761,9.57363963 C146.253548,9.55133241 145.992846,9.32420436 145.992846,8.90036718 L145.992846,8.14090775 L149.789136,8.14090775 L151.175742,8.14090775 L152.808511,8.14090775 Z" id="Fill-15" fill="#0060A4"></path>
                    <path d="M160.793617,9.90670734 C160.015797,10.2205275 159.339654,10.6719697 158.77332,11.2610341 C158.203935,11.8511411 157.744361,12.5590609 157.392563,13.3847936 C157.042798,14.2063559 156.808944,15.1290497 156.695067,16.1518323 L169.260158,16.1518323 C169.260158,15.1050701 169.115779,14.1656949 168.83922,13.3337066 C168.555545,12.5027609 168.163077,11.7990115 167.649614,11.2245434 C167.137168,10.6479901 166.526097,10.2069738 165.812333,9.89836661 C165.096535,9.58975943 164.304481,9.43754103 163.435153,9.43754103 C162.451949,9.43754103 161.572453,9.59497239 160.793617,9.90670734 M166.395952,8.60972313 C167.309,8.98922655 168.100038,9.54805576 168.770081,10.2726571 C169.441141,10.9972584 169.964771,11.8938873 170.339955,12.9542032 C170.719205,14.0124339 170.904255,15.2291385 170.904255,16.6011893 C170.904255,16.8920724 170.862568,17.0880797 170.780211,17.1923389 C170.69582,17.2965981 170.566692,17.3487277 170.389776,17.3487277 L156.61881,17.3487277 L156.61881,17.7240607 C156.61881,19.19203 156.786575,20.4796308 157.118038,21.5899911 C157.448484,22.7024366 157.921277,23.638684 158.533365,24.3893501 C159.14647,25.1410588 159.885652,25.7113565 160.757014,26.0898174 C161.623291,26.466193 162.594295,26.6559447 163.666974,26.6559447 C164.625777,26.6559447 165.453417,26.5516855 166.153963,26.3337838 C166.86061,26.1190099 167.448296,25.8771286 167.927189,25.6070973 C168.407098,25.342279 168.787366,25.0983125 169.064941,24.8783257 C169.347599,24.6656369 169.552984,24.5551222 169.679062,24.5551222 C169.845811,24.5551222 169.972905,24.6239333 170.061363,24.7552998 L170.563641,25.3839827 C170.25353,25.7728694 169.847844,26.1440321 169.342516,26.4797467 C168.840237,26.8217168 168.276953,27.1115573 167.658765,27.3555238 C167.040576,27.5974051 166.375617,27.7913272 165.667953,27.9352048 C164.96029,28.0769973 164.246526,28.1489362 163.531745,28.1489362 C162.231312,28.1489362 161.044756,27.9206086 159.970043,27.4524848 C158.899397,26.9895741 157.977198,26.3087616 157.21158,25.4225586 C156.447995,24.5332278 155.855225,23.4385064 155.442421,22.1519481 C155.025551,20.8633046 154.819149,19.3869946 154.819149,17.7240607 C154.819149,16.3217747 155.01335,15.0300035 155.401751,13.8466618 C155.792186,12.6601923 156.35547,11.6374097 157.087535,10.7814419 C157.824685,9.92547399 158.722482,9.25404487 159.790077,8.76819709 C160.852589,8.28234931 162.064564,8.04255319 163.416852,8.04255319 C164.488514,8.04568097 165.482903,8.23126231 166.395952,8.60972313" id="Fill-17" fill="#403F41"></path>
                    <g id="Group-21" transform="translate(174.925532, 8.042553)">
                        <mask id="mask-6" fill="white">
                            <use xlink:href="#path-5"></use>
                        </mask>
                        <g id="Clip-20"></g>
                        <path d="M13.8184133,1.06255197 L13.5721101,2.37569984 C13.533908,2.58787245 13.4052271,2.69343096 13.1931048,2.69343096 C13.1177059,2.69343096 13.011142,2.67126367 12.8703973,2.61742883 C12.7326686,2.5625384 12.5577431,2.50131447 12.349642,2.43375702 C12.1425463,2.37253309 11.8841793,2.30919798 11.5815782,2.25536314 C11.2799824,2.20258388 10.9311367,2.1804166 10.5430835,2.1804166 C9.114525,2.1804166 7.94533883,2.64276287 7.02748245,3.5695666 C6.1116367,4.4974259 5.37071649,5.83590782 4.80271117,7.5881791 L4.80271117,18.8734395 C6.35793989,18.9399413 6.55096117,18.9441637 6.79123245,18.9547195 C7.25669521,18.9800536 7.53918989,19.1510584 7.53918989,19.655628 L7.53918989,20.4515392 L4.80271117,20.4515392 L3.00620585,20.4515392 L0.268721809,20.4515392 L0.268721809,19.655628 C0.268721809,19.1510584 0.552221809,18.9800536 1.02170585,18.9547195 C1.25795585,18.9441637 1.44796117,18.9399413 3.00620585,18.8734395 L3.00620585,2.24164053 C1.44796117,2.1804166 1.25795585,2.17408309 1.02170585,2.16036048 C0.552221809,2.13608202 0.268721809,1.96824399 0.268721809,1.45839638 L0.268721809,0.667763138 L3.00620585,0.667763138 L3.95120585,0.667763138 C4.16734947,0.667763138 4.3211633,0.712097713 4.41666862,0.809211543 C4.5101633,0.901047447 4.56243989,1.05938521 4.57751968,1.28316926 L4.72831755,5.46223069 C5.33351968,3.85351899 6.14079096,2.5984283 7.15214202,1.69484745 C8.16248777,0.7838775 9.40606755,0.326809149 10.8808707,0.326809149 C11.4488761,0.326809149 11.974658,0.393311011 12.4531899,0.521036809 C12.9327271,0.645595851 13.3871314,0.828212074 13.8184133,1.06255197" id="Fill-19" fill="#403F41" mask="url(#mask-6)"></path>
                    </g>
                </g>
            </g>
        </g>
    </g>
</svg>