<?xml version="1.0" encoding="UTF-8"?>
<svg width="276px" height="69px" viewBox="0 0 276 69" version="1.1" xmlns="http://www.w3.org/2000/svg" xmlns:xlink="http://www.w3.org/1999/xlink">
    <!-- Generator: Sketch 55.2 (78181) - https://sketchapp.com -->
    <title>logo-epic-color</title>
    <desc>Created with Sketch.</desc>
    <g id="Symbols" stroke="none" stroke-width="1" fill="none" fill-rule="evenodd">
        <g id="LOGO_EPIC" fill="#009EE2">
            <g id="Group-3">
                <path d="M274.597465,34.451366 C274.103473,34.3294643 273.564739,34.2662448 272.98035,34.2662448 C271.459415,34.2662448 270.18015,34.7090838 269.140423,35.5944593 C268.101001,36.4780198 267.269768,37.7009693 266.646115,39.2636101 L266.490582,35.1963882 C266.477798,34.978296 266.422708,34.8216085 266.324396,34.7326777 C266.227911,34.6410245 266.068726,34.5962567 265.847145,34.5962567 L264.873467,34.5962567 L262.058657,34.5962567 L262.058657,35.3672926 C262.058657,35.8618566 262.348417,36.0282237 262.830538,36.0515151 C263.07586,36.063312 263.270048,36.0681518 264.873467,36.1313713 L264.873467,52.3306873 C263.270048,52.3939068 263.074642,52.3987466 262.830538,52.410241 C262.348417,52.4338349 262.058657,52.600202 262.058657,53.0947661 L262.058657,53.8654995 L264.873467,53.8654995 L266.724338,53.8654995 L269.539147,53.8654995 L269.539147,53.0947661 C269.539147,52.600202 269.24817,52.4338349 268.767266,52.410241 C268.521944,52.3987466 268.326235,52.3939068 266.724338,52.3306873 L266.724338,41.3350318 C267.309032,39.6317351 268.071782,38.3268121 269.014414,37.4244974 C269.955221,36.5203678 271.161133,36.0681518 272.628803,36.0681518 C273.031788,36.0681518 273.389118,36.0938631 273.700488,36.1452856 C274.012467,36.1970107 274.275442,36.2553904 274.490023,36.3186099 C274.704603,36.3845518 274.882659,36.4429315 275.026322,36.4943541 C275.169071,36.5460791 275.279862,36.5717904 275.357476,36.5717904 C275.578144,36.5717904 275.707805,36.4686428 275.746765,36.2623476 L276,34.9834383 C275.557751,34.7511293 275.091153,34.5732677 274.597465,34.451366 L274.597465,34.451366 Z M250.714804,35.6604011 C251.59778,35.6604011 252.404055,35.8125514 253.131498,36.1171545 C253.858637,36.4196401 254.48229,36.8552194 255.002153,37.42238 C255.522016,37.991658 255.923784,38.6849551 256.2105,39.5049936 C256.495695,40.3253347 256.639357,41.2509408 256.639357,42.2839292 L243.855227,42.2839292 C243.972409,41.2763496 244.208904,40.3673802 244.566234,39.5542988 C244.924782,38.7415199 245.39138,38.043383 245.969987,37.4620056 C246.54768,36.8809307 247.234033,36.4359743 248.026003,36.1265315 C248.818277,35.8149713 249.714037,35.6604011 250.714804,35.6604011 L250.714804,35.6604011 Z M250.694715,34.2849989 C249.317747,34.2849989 248.087181,34.5239626 247.002713,35.0018899 C245.918244,35.4798172 245.002396,36.1431682 244.255169,36.9889181 C243.507637,37.8325505 242.936335,38.8398277 242.540046,40.0089347 C242.143757,41.1780417 241.945917,42.4524137 241.945917,43.8326557 C241.945917,45.4730353 242.156845,46.9304112 242.578701,48.2002459 C243.000557,49.472198 243.601991,50.547837 244.381178,51.4265577 C245.161581,52.3028586 246.095996,52.9704445 247.187769,53.4296177 C248.279238,53.8887909 249.487586,54.1162601 250.812506,54.1162601 C251.539949,54.1162601 252.26374,54.0457809 252.985096,53.9051251 C253.706756,53.7623519 254.382152,53.5726934 255.011589,53.3337297 C255.642242,53.0947661 256.214153,52.8064972 256.726711,52.4713431 C257.239574,52.1364915 257.652299,51.7732063 257.964582,51.3866296 L257.457502,50.7680465 C257.3668,50.6370702 257.237139,50.5735482 257.067301,50.5735482 C256.937639,50.5735482 256.730363,50.6791157 256.443647,50.8923681 C256.158453,51.1056205 255.771599,51.3445841 255.285217,51.6092591 C254.797008,51.873934 254.197096,52.1128977 253.481523,52.32615 C252.766863,52.5394024 251.923151,52.6446674 250.948255,52.6446674 C249.857699,52.6446674 248.870324,52.4574288 247.987044,52.0847665 C247.10285,51.7099868 246.349535,51.1497834 245.726187,50.409601 C245.102533,49.6669988 244.621629,48.7462325 244.284388,47.649722 C243.946233,46.5507917 243.777613,45.280957 243.777613,43.8326557 L243.777613,43.4648332 L257.788656,43.4648332 C257.970365,43.4648332 258.103679,43.4134106 258.188294,43.310263 C258.271995,43.2071154 258.314607,43.015037 258.314607,42.7291881 C258.314607,41.3749599 258.123767,40.1731844 257.740566,39.1280965 C257.356147,38.0830086 256.824414,37.1997506 256.142017,36.484977 C255.459621,35.768086 254.654563,35.2224019 253.725627,34.8473197 C252.796691,34.4722375 251.786489,34.2871163 250.694715,34.2849989 L250.694715,34.2849989 Z M237.824753,34.5962567 L236.444133,34.5962567 L232.664167,34.5962567 L232.664167,35.3672926 C232.664167,35.7986371 232.921968,36.0258038 233.437266,36.0515151 C233.493574,36.0542374 233.562057,36.0563548 233.642107,36.0608921 C233.722156,36.063312 233.816815,36.0681518 233.923953,36.0705717 C234.030178,36.0748065 234.225583,36.0823686 234.509864,36.0938631 C234.792928,36.1053575 235.107646,36.1171545 235.452801,36.1313713 L230.887562,50.261988 C230.783772,50.5596339 230.702505,50.8476002 230.643458,51.1240721 C230.583497,51.4147608 230.527797,51.6888128 230.478489,51.9465306 C230.361611,51.4053837 230.204861,50.8427605 230.010369,50.261988 L224.886308,34.9244536 C224.794084,34.6410245 224.606896,34.4979488 224.32018,34.4979488 L223.561083,34.4979488 C223.287759,34.4979488 223.10605,34.6410245 223.015348,34.9244536 L217.81215,50.261988 C217.707447,50.5617513 217.616441,50.8451803 217.538522,51.114695 C217.460908,51.3842097 217.390294,51.6561443 217.325463,51.9277764 C217.311158,51.8551799 217.259111,51.5835478 217.169626,51.114695 C217.116362,50.8427605 217.04453,50.5596339 216.955046,50.261988 L212.409895,36.1313713 C212.844535,36.1126172 213.226519,36.0984004 213.556455,36.0866034 C213.886696,36.0726891 214.096711,36.0657319 214.187109,36.0608921 C214.276898,36.0584722 214.357252,36.0563548 214.427865,36.0515151 C214.942859,36.0258038 215.200964,35.7986371 215.200964,35.3672926 L215.200964,34.5962567 L211.381735,34.5962567 L209.960329,34.5962567 L208.410175,34.5962567 L208.410175,35.3672926 C208.410175,35.7986371 208.667063,36.0258038 209.182056,36.0515151 C209.229233,36.0542374 209.283411,36.0563548 209.344894,36.0584722 C209.407289,36.0608921 209.474555,36.063312 209.546386,36.0657319 C209.619739,36.0681518 209.742096,36.0726891 209.914065,36.0796462 C210.08512,36.0866034 210.270177,36.0938631 210.465887,36.1008202 L216.44827,53.8654995 L217.75432,53.8654995 C217.988076,53.8654995 218.143304,53.7293809 218.220919,53.4580513 L223.600042,37.8110741 C223.664873,37.6165758 223.720572,37.42238 223.76501,37.2303016 C223.808839,37.0448779 223.851147,36.8527995 223.892541,36.6492267 C223.929978,36.8388852 223.976243,37.0333835 224.028899,37.2303016 C224.080946,37.4244974 224.138776,37.6165758 224.205129,37.8110741 L229.523378,53.4580513 C229.614384,53.7293809 229.76383,53.8654995 229.972627,53.8654995 L231.336507,53.8654995 L237.317978,36.1032401 C237.579431,36.0938631 237.819883,36.084486 238.040551,36.0772264 C238.26061,36.0681518 238.407012,36.063312 238.481278,36.0608921 C238.554327,36.0563548 238.621592,36.0542374 238.682771,36.0515151 C239.197764,36.0258038 239.454956,35.7986371 239.454956,35.3672926 L239.454956,34.5962567 L237.824753,34.5962567 Z M197.087627,52.6658414 C195.931023,52.6658414 194.921125,52.4668059 194.058237,52.0729696 C193.194132,51.6794357 192.472776,51.114695 191.895083,50.37905 C191.316172,49.6434049 190.881228,48.755307 190.588729,47.7174788 C190.296534,46.6772307 190.150437,45.5123585 190.150437,44.2219547 C190.150437,42.942138 190.296534,41.7802906 190.588729,40.7352027 C190.881228,39.6901149 191.316172,38.7950598 191.895083,38.0524576 C192.472776,37.3098553 193.194132,36.7381575 194.058237,36.3397839 C194.921125,35.9392929 195.931023,35.737535 197.087627,35.737535 C198.243927,35.737535 199.254434,35.9392929 200.118235,36.3397839 C200.98234,36.7381575 201.702783,37.3098553 202.281389,38.0524576 C202.859387,38.7950598 203.291896,39.6901149 203.576786,40.7352027 C203.862285,41.7802906 204.005947,42.942138 204.005947,44.2219547 C204.005947,45.5123585 203.863198,46.6772307 203.576786,47.7174788 C203.291896,48.755307 202.859387,49.6434049 202.281389,50.37905 C201.702783,51.114695 200.98234,51.6794357 200.118235,52.0729696 C199.254434,52.4668059 198.243927,52.6658414 197.087627,52.6658414 L197.087627,52.6658414 Z M197.087627,34.2849989 C195.697876,34.2849989 194.453918,34.5215427 193.355448,34.9925128 C192.258196,35.4637855 191.32926,36.1313713 190.568945,36.9982951 C189.809847,37.8627991 189.230632,38.9054671 188.834951,40.1259967 C188.438662,41.3444088 188.240518,42.7107365 188.240518,44.2219547 C188.240518,45.7307531 188.438662,47.0940559 188.834951,48.3079308 C189.230632,49.5215032 189.809847,50.5596339 190.568945,51.4265577 C191.32926,52.2910617 192.258196,52.9565301 193.355448,53.4202406 C194.453918,53.8842536 195.697876,54.1162601 197.087627,54.1162601 C198.477379,54.1162601 199.72225,53.8842536 200.819503,53.4202406 C201.917059,52.9565301 202.842343,52.2910617 203.596875,51.4265577 C204.350189,50.5596339 204.92423,49.5215032 205.321737,48.3079308 C205.717417,47.0940559 205.915866,45.7307531 205.915866,44.2219547 C205.915866,42.7107365 205.717417,41.3444088 205.321737,40.1259967 C204.92423,38.9054671 204.350189,37.8627991 203.596875,36.9982951 C202.842343,36.1313713 201.917059,35.4637855 200.819503,34.9925128 C199.72225,34.5215427 198.477379,34.2849989 197.087627,34.2849989 L197.087627,34.2849989 Z M182.646205,47.5813603 C182.35401,48.6337078 181.918762,49.53572 181.341068,50.2922366 C180.762462,51.0469383 180.044759,51.6325505 179.187654,52.0448384 C178.330549,52.4574288 177.331,52.6634215 176.186266,52.6634215 C175.029966,52.6634215 174.000892,52.4386747 173.097523,51.9864587 C172.195068,51.5342426 171.37327,50.7541322 170.633043,49.6434049 L170.633043,39.5334273 C171.438101,38.3476836 172.363384,37.4196576 173.410111,36.7541892 C174.45562,36.0914432 175.621356,35.758709 176.907926,35.758709 C178.908243,35.758709 180.438613,36.4335544 181.496601,37.7808255 C182.555503,39.1305164 183.084497,41.2388413 183.084497,44.1042878 C183.084497,45.3698877 182.9384,46.5296177 182.646205,47.5813603 L182.646205,47.5813603 Z M183.006883,36.7263605 C181.681962,35.0862834 179.824091,34.2662448 177.433572,34.2662448 C176.004557,34.2662448 174.715248,34.6083561 173.565948,35.2925786 C172.416344,35.9764986 171.412229,36.8999873 170.555125,38.0621371 L170.379808,35.0793262 C170.36672,34.8987423 170.307672,34.7747232 170.203882,34.7021266 C170.100092,34.63195 169.963735,34.5962567 169.795114,34.5962567 L168.782172,34.5962567 L165.966145,34.5962567 L165.966145,35.3672926 C165.966145,35.7986371 166.22425,36.0258038 166.739243,36.0515151 C166.794639,36.0542374 166.864339,36.0563548 166.946824,36.0608921 C167.029612,36.063312 167.127315,36.0681518 167.24054,36.0705717 C167.353461,36.0748065 167.550388,36.0823686 167.831017,36.0938631 C168.112559,36.1032401 168.428495,36.1171545 168.782172,36.1313713 L168.782172,59.1487137 C168.334444,59.1653504 167.948808,59.1816846 167.625872,59.1934816 C167.302632,59.2052785 167.090486,59.2122357 166.990348,59.2170754 C166.890211,59.2216127 166.806509,59.2237301 166.739243,59.2264525 C166.22425,59.2518613 165.966145,59.4817504 165.966145,59.9103725 L165.966145,60.6814084 L168.782172,60.6814084 L170.633043,60.6814084 L173.443287,60.6814084 L173.443287,59.9103725 C173.443287,59.4817504 173.186399,59.2518613 172.671102,59.2285699 C172.615402,59.2237301 172.54631,59.2216127 172.463522,59.2191928 C172.381342,59.2146555 172.283335,59.2122357 172.170414,59.2073959 C172.055971,59.2028586 171.859957,59.1959014 171.58085,59.1865244 C171.301439,59.1747274 170.985503,59.1629305 170.633043,59.1487137 L170.633043,51.2695677 C171.334311,52.2136254 172.165544,52.9235592 173.127352,53.4014865 C174.087942,53.8772964 175.231458,54.1162601 176.556379,54.1162601 C177.920259,54.1162601 179.124954,53.8585423 180.171985,53.3428043 C181.217494,52.8252513 182.09834,52.1198548 182.812391,51.2223799 C183.526746,50.3227876 184.068828,49.2662053 184.439246,48.0453732 C184.80936,46.8245412 184.994416,45.5123585 184.994416,44.1042878 C184.994416,40.8265534 184.331804,38.3664377 183.006883,36.7263605 L183.006883,36.7263605 Z M153.826669,50.7659291 C153.73475,50.6370702 153.605088,50.5735482 153.436772,50.5735482 C153.294023,50.5735482 153.101661,50.683653 152.861209,50.9014427 C152.620757,51.1216522 152.295691,51.3606159 151.887835,51.6186361 C151.478763,51.8760514 150.958595,52.1153175 150.328246,52.3355271 C149.698505,52.5560391 148.915667,52.6634215 147.980035,52.6634215 C146.96618,52.6634215 146.044549,52.4761829 145.213315,52.1035206 C144.382387,51.7287409 143.673814,51.1827543 143.089425,50.4655609 C142.504731,49.7489724 142.053046,48.8678317 141.734371,47.8227438 C141.41661,46.7779584 141.257424,45.5783003 141.257424,44.2219547 C141.257424,42.9164267 141.412957,41.7424799 141.72524,40.6955771 C142.03661,39.6504892 142.48799,38.7599715 143.079381,38.0243264 C143.670466,37.2886813 144.397301,36.7242431 145.26171,36.3304068 C146.125815,35.9365705 147.11593,35.7399549 148.23327,35.7399549 C149.199948,35.7399549 150.30207,35.9577445 151.539637,36.3984661 C151.56703,36.916019 151.601119,37.4036259 151.638861,37.8606817 C151.67782,38.3195524 151.710692,38.6783004 151.738086,38.9405554 C151.765174,39.2006931 151.780393,39.360103 151.782524,39.413643 C151.814787,40.0394858 152.095111,40.3534659 152.623497,40.3534659 L153.570999,40.3534659 L153.570999,35.494034 L152.550144,35.1915484 C151.869878,34.990093 151.077908,34.7886375 150.171191,34.589602 C149.265996,34.3881465 148.586948,34.2871163 148.136785,34.2871163 C146.732728,34.2871163 145.489074,34.5288024 144.404606,35.0136868 C143.320137,35.4961514 142.404289,36.1779541 141.657062,37.0566749 C140.90953,37.9332783 140.341272,38.9804835 139.952288,40.1937534 C139.562086,41.4076283 139.367594,42.7503621 139.367594,44.2219547 C139.367594,45.7845956 139.571521,47.1784494 139.981812,48.4038187 C140.390884,49.6316079 140.961273,50.6673188 141.695717,51.5130686 C142.43016,52.359121 143.307049,53.0031129 144.326687,53.4486743 C145.346629,53.8936306 146.473405,54.1163224 147.70732,54.1163224 C148.435067,54.1186799 149.134204,54.0506207 149.802295,53.9148046 C150.471908,53.7789886 151.092213,53.5869102 151.663819,53.3428043 C152.235121,53.0971859 152.748288,52.8064972 153.203321,52.4713431 C153.656831,52.1364915 154.03425,51.7732063 154.333749,51.3866296 L153.826669,50.7659291 Z M131.114918,29.1351809 C131.271364,29.289751 131.453072,29.4140726 131.660652,29.5030034 C131.867928,29.5919342 132.088596,29.6388195 132.323265,29.6388195 C132.556716,29.6388195 132.778297,29.5943541 132.985573,29.5030034 C133.193153,29.4116528 133.374557,29.289751 133.531308,29.1351809 C133.68684,28.9803082 133.814371,28.8021442 133.910856,28.6031086 C134.008863,28.4016532 134.056954,28.1862834 134.056954,27.9542769 C134.056954,27.7222705 134.008863,27.499641 133.910856,27.2863886 C133.813154,27.0731363 133.68684,26.8880151 133.531308,26.7334449 C133.375775,26.5788747 133.19437,26.456973 132.985573,26.3659248 C132.77708,26.2766916 132.556716,26.2319237 132.323265,26.2295038 C132.089813,26.2295038 131.869145,26.2742717 131.660652,26.3659248 C131.451855,26.456973 131.270451,26.5788747 131.114918,26.7334449 C130.958167,26.8880151 130.835506,27.0731363 130.744804,27.2863886 C130.654102,27.4972211 130.607838,27.7198506 130.607838,27.9542769 C130.607838,28.1862834 130.654102,28.4016532 130.744804,28.6031086 C130.835506,28.8021442 130.958167,28.9778884 131.114918,29.1351809 L131.114918,29.1351809 Z M135.280824,52.410241 C135.226646,52.4081236 135.156945,52.4057038 135.074461,52.4011665 C134.99076,52.3987466 134.892753,52.3939068 134.779831,52.3917894 C134.666606,52.3872521 134.469679,52.3799925 134.18905,52.3681955 C133.909639,52.359121 133.59279,52.3449041 133.239113,52.3306873 L133.239113,34.5962567 L131.387024,34.5962567 L128.572214,34.5962567 L128.572214,35.3672926 C128.572214,35.7959147 128.83032,36.0258038 129.345313,36.0490952 C129.400708,36.0542374 129.470409,36.0563548 129.552893,36.0584722 C129.635377,36.063312 129.733384,36.0657319 129.84661,36.0705717 C129.959835,36.0748065 130.156458,36.0823686 130.436782,36.0914432 C130.717411,36.1032401 131.034564,36.1147346 131.387024,36.1289514 L131.387024,52.3306873 C130.940514,52.3494414 130.555182,52.3636583 130.231942,52.3754552 C129.907788,52.3893695 129.69686,52.3963267 129.596722,52.4011665 C129.495367,52.4035864 129.411361,52.4081236 129.345313,52.410241 C128.83032,52.4362548 128.572214,52.6634215 128.572214,53.0947661 L128.572214,53.8654995 L131.387024,53.8654995 L133.239113,53.8654995 L136.053922,53.8654995 L136.053922,53.0947661 C136.053922,52.6634215 135.797035,52.4362548 135.280824,52.410241 L135.280824,52.410241 Z M122.529566,47.5813603 C122.237371,48.6337078 121.802427,49.53572 121.224733,50.2922366 C120.645822,51.0469383 119.928119,51.6325505 119.071014,52.0448384 C118.21391,52.4574288 117.21436,52.6634215 116.069931,52.6634215 C114.913326,52.6634215 113.884253,52.4386747 112.981493,51.9864587 C112.078428,51.5342426 111.256935,50.7541322 110.516404,49.6434049 L110.516404,39.5334273 C111.321766,38.3476836 112.247049,37.4196576 113.293776,36.7541892 C114.33959,36.0914432 115.505325,35.758709 116.791286,35.758709 C118.791908,35.758709 120.321669,36.4335544 121.380266,37.7808255 C122.438864,39.1305164 122.968162,41.2388413 122.968162,44.1042878 C122.968162,45.3698877 122.822065,46.5296177 122.529566,47.5813603 L122.529566,47.5813603 Z M122.890244,36.7263605 C121.565323,35.0862834 119.707451,34.2662448 117.317237,34.2662448 C115.888222,34.2662448 114.598608,34.6083561 113.449309,35.2925786 C112.299705,35.9764986 111.29559,36.8999873 110.438485,38.0621371 L110.263168,35.0793262 C110.25008,34.8987423 110.191337,34.7747232 110.087243,34.7021266 C109.983757,34.63195 109.846791,34.5962567 109.67817,34.5962567 L108.665837,34.5962567 L105.84981,34.5962567 L105.84981,35.3672926 C105.84981,35.7986371 106.107915,36.0258038 106.622908,36.0515151 C106.678304,36.0542374 106.7477,36.0563548 106.830488,36.0608921 C106.912973,36.063312 107.010675,36.0681518 107.123901,36.0705717 C107.237126,36.0748065 107.433749,36.0823686 107.714378,36.0938631 C107.996224,36.1032401 108.312159,36.1171545 108.665837,36.1313713 L108.665837,59.1487137 C108.217805,59.1653504 107.832473,59.1816846 107.509537,59.1934816 C107.186601,59.2052785 106.974151,59.2122357 106.874013,59.2170754 C106.773876,59.2216127 106.690174,59.2237301 106.622908,59.2264525 C106.107915,59.2518613 105.84981,59.4817504 105.84981,59.9103725 L105.84981,60.6814084 L108.665837,60.6814084 L110.516404,60.6814084 L113.326648,60.6814084 L113.326648,59.9103725 C113.326648,59.4817504 113.06976,59.2518613 112.554462,59.2285699 C112.499371,59.2237301 112.429366,59.2216127 112.347187,59.2191928 C112.264702,59.2146555 112.167,59.2122357 112.053774,59.2073959 C111.939331,59.2028586 111.743622,59.1959014 111.463906,59.1865244 C111.184799,59.1747274 110.868864,59.1629305 110.516404,59.1487137 L110.516404,51.2695677 C111.217976,52.2136254 112.048904,52.9235592 113.010712,53.4014865 C113.971607,53.8772964 115.114819,54.1162601 116.440044,54.1162601 C117.80362,54.1162601 119.008314,53.8585423 120.055346,53.3428043 C121.100551,52.8252513 121.981396,52.1198548 122.696056,51.2223799 C123.410107,50.3227876 123.952493,49.2662053 124.322302,48.0453732 C124.69272,46.8245412 124.878081,45.5123585 124.878081,44.1042878 C124.878081,40.8265534 124.215469,38.3664377 122.890244,36.7263605 L122.890244,36.7263605 Z M95.6978676,35.6604011 C96.5808436,35.6604011 97.3868142,35.8125514 98.1145618,36.1171545 C98.8417007,36.4196401 99.4650495,36.8552194 99.9849127,37.42238 C100.504776,37.991658 100.906848,38.6849551 101.19326,39.5049936 C101.478759,40.3253347 101.622421,41.2509408 101.622421,42.2839292 L88.8382909,42.2839292 C88.9548644,41.2763496 89.1919683,40.3673802 89.5489938,39.5542988 C89.9072368,38.7415199 90.3741397,38.043383 90.9533549,37.4620056 C91.530744,36.8809307 92.216793,36.4359743 93.0090669,36.1265315 C93.8010365,35.8149713 94.6967961,35.6604011 95.6978676,35.6604011 L95.6978676,35.6604011 Z M95.6777792,34.2849989 C94.3011157,34.2849989 93.0702452,34.5239626 91.9857765,35.0018899 C90.9013077,35.4798172 89.9854598,36.1431682 89.2379281,36.9889181 C88.4907009,37.8325505 87.9187905,38.8398277 87.5228057,40.0089347 C87.1265165,41.1780417 86.9286763,42.4524137 86.9286763,43.8326557 C86.9286763,45.4730353 87.1396044,46.9304112 87.561765,48.2002459 C87.9839256,49.472198 88.5847511,50.547837 89.3639371,51.4265577 C90.1443407,52.3028586 91.0793639,52.9704445 92.1708332,53.4296177 C93.2626068,53.8887909 94.4706495,54.1162601 95.7955702,54.1162601 C96.5227091,54.1162601 97.2464999,54.0457809 97.9681601,53.9051251 C98.6895159,53.7623519 99.364912,53.5726934 99.9946526,53.3337297 C100.625306,53.0947661 101.196912,52.8064972 101.709471,52.4713431 C102.222333,52.1364915 102.635058,51.7732063 102.947342,51.3866296 L102.440566,50.7680465 C102.349864,50.6370702 102.219898,50.5735482 102.050365,50.5735482 C101.920703,50.5735482 101.713123,50.6791157 101.426711,50.8923681 C101.141517,51.1056205 100.754968,51.3445841 100.267672,51.6092591 C99.780072,51.873934 99.1801596,52.1128977 98.4642824,52.32615 C97.7502315,52.5394024 96.9059103,52.6446674 95.931319,52.6446674 C94.8407629,52.6446674 93.8527793,52.4574288 92.9701076,52.0847665 C92.0859141,51.7099868 91.3329038,51.1497834 90.7092506,50.409601 C90.0855973,49.6669988 89.6046934,48.7462325 89.267452,47.649722 C88.928993,46.5507917 88.7606767,45.280957 88.7606767,43.8326557 L88.7606767,43.4648332 L102.772025,43.4648332 C102.953429,43.4648332 103.086438,43.4134106 103.171358,43.310263 C103.255364,43.2071154 103.297367,43.015037 103.297367,42.7291881 C103.297367,41.3749599 103.106223,40.1731844 102.723326,39.1280965 C102.339211,38.0830086 101.807478,37.1997506 101.125081,36.484977 C100.44238,35.768086 99.6373227,35.2224019 98.7083868,34.8473197 C97.7794509,34.4722375 96.7692484,34.2871163 95.6777792,34.2849989 L95.6777792,34.2849989 Z M5.43951107,48.3009736 C6.27317928,47.8248612 6.02663994,47.3932142 6.80460852,46.8324058 C7.58318584,46.2709925 7.40878209,46.0311214 8.18462008,45.469708 C8.96806732,44.9088996 8.94889204,44.8801635 9.72564314,44.3263123 C10.508786,43.7582442 10.4862627,43.7328355 11.2642312,43.1720271 C12.0418955,42.6084963 12.2640852,42.9143093 13.04388,42.351081 C13.8239792,41.7905751 13.8580686,41.835343 14.6354284,41.2742322 C15.4161363,40.7113064 15.3004759,40.5576437 16.0805751,39.9971378 C16.8582393,39.4360269 17.0597319,39.7124988 17.8386136,39.1510854 C18.6162778,38.5887646 18.4783984,38.4006186 19.253932,37.8376928 C20.032205,37.2808167 20.0060292,37.2408886 20.7855196,36.6779628 C21.4691337,36.1912634 21.3674742,35.6597962 20.6007673,35.3213147 C19.7229655,34.9326207 19.928415,34.4707251 19.0481782,34.0808211 C18.1703764,33.6906146 17.8453097,34.4120429 16.9638555,34.0212315 C16.0848362,33.6331424 16.2202807,33.3297493 15.3415658,32.9413577 C14.461329,32.5511512 14.6354284,32.1712293 13.7573223,31.7792079 C12.8764768,31.3923287 12.8396481,31.4739999 11.9630637,31.0856083 C11.0831314,30.6941919 11.0831314,30.6890496 10.206547,30.3021705 C9.32783213,29.911964 9.27304561,30.0356806 8.39159138,29.6448692 C7.51500706,29.2549652 7.43313165,29.4419013 6.55228616,29.0526023 C5.67661495,28.6590685 5.81327688,28.3556754 4.93425761,27.9669813 C4.0555427,27.5770773 3.83883158,28.0613569 2.96072542,27.6708479 C2.08353236,27.277919 2.33676783,26.7107585 1.45896603,26.3214595 C0.692563495,25.9832805 0.024472322,26.6753677 0.110000167,27.5050858 C0.211355229,28.458823 -0.0771871093,28.4863492 0.0205155177,29.4419013 C0.119739993,30.3917062 -0.0400540236,30.4095529 0.060692299,31.3605677 C0.160525513,32.3115826 0.397020657,32.2895012 0.496549501,33.2383986 C0.595469607,34.189716 0.830138533,34.167332 0.930276117,35.1186494 C1.0264569,36.0699667 0.960104333,36.0775288 1.05658948,37.0270313 C1.16098824,37.9783486 1.26356078,37.9668542 1.36582895,38.9163566 C1.46261847,39.865859 0.947016442,39.9203064 1.04350159,40.8713213 C1.14424791,41.8205212 1.38074306,41.7987423 1.48240249,42.7494546 C1.57919201,43.6983521 2.0281371,43.6560041 2.12857905,44.6049016 C2.22993412,45.5562189 2.18458305,45.5613612 2.28380753,46.5105611 C2.38151015,47.4618784 2.52943376,47.4488716 2.62804949,48.4001889 C2.71631666,49.2283946 2.80214888,49.2955464 3.48515416,48.8064271 C4.26525333,48.2435013 4.58666758,48.7834382 5.43951107,48.3009736 L5.43951107,48.3009736 Z M12.5005804,11.320289 C13.2073265,11.9694232 12.9814843,12.2189739 13.7582354,12.7794798 C14.5371171,13.3405906 14.7726991,13.0190484 15.5524939,13.585604 C16.3286363,14.1464124 16.2409778,14.2634743 17.0183377,14.8254927 C17.7987412,15.3914433 17.4514555,15.861506 18.2288154,16.4274566 C19.0089146,16.9885675 18.9906524,17.0109514 19.768621,17.578717 C20.5475027,18.1374079 20.72982,17.8902772 21.5044405,18.4510855 C22.2860616,19.0170362 22.2997582,18.9943498 23.0755962,19.557578 C23.8541735,20.1165715 24.0617535,19.8370748 24.838809,20.3966732 C25.617082,20.9592965 25.2801449,21.4163523 26.0596353,21.9768582 C26.8379082,22.5419014 27.1252331,22.1532073 27.9010711,22.7140157 C28.5807283,23.2034375 29.3072584,23.0818382 29.3930907,22.2521201 C29.4956632,21.3011053 29.1106357,21.2614796 29.2104689,20.3101623 C29.3106065,19.3603574 29.7215054,19.4021004 29.821643,18.4510855 C29.9233024,17.4949284 29.5002287,17.4537904 29.6031056,16.504288 C29.7023301,15.5529706 29.9135626,15.5771695 30.0170482,14.6216173 C30.1168815,13.6769547 29.925433,13.6539658 30.0264837,12.7029509 C30.12723,11.751936 30.4218597,11.7824871 30.5229104,10.8284474 C30.6224393,9.88166733 30.6817913,9.8865071 30.7843639,8.93700467 C30.8848058,7.98598982 30.3360275,7.92670263 30.4407307,6.97538529 C30.5402595,6.02467292 30.6562243,6.03888974 30.7591012,5.0896898 C30.8592388,4.13837246 30.9828128,4.15107685 31.0826461,3.20036448 C31.1836967,2.25086206 31.5595931,2.2877653 31.6615569,1.33644796 C31.7522591,0.50793979 30.805061,-0.257651368 30.0371366,0.0829474638 C29.1572042,0.468314171 29.2007291,0.567226976 28.3232317,0.95622351 C27.4432993,1.34461507 27.5802656,1.65768771 26.7012463,2.04275193 C25.8197921,2.43144598 25.822227,2.43568078 24.9422947,2.82467732 C24.0635798,3.21458131 24.1950674,3.51041227 23.3160481,3.89850134 C22.4373332,4.28386805 22.1420948,3.62686924 21.2612493,4.01556329 C20.3849693,4.40334988 20.6117246,4.90729096 19.7290529,5.29779992 C18.8482074,5.6816542 18.8975153,5.79448134 18.0197135,6.18468782 C17.1403899,6.56944956 17.1199971,6.51863197 16.2382385,6.90853596 C15.3592192,7.29692752 15.0642851,6.63145911 14.1843527,7.02015316 C13.3080728,7.41035964 13.3372923,7.47267168 12.4543162,7.86318064 C11.5795581,8.25278215 11.7859207,8.71014044 10.9050752,9.10004443 C10.1371508,9.43913084 10.2038077,9.71046046 10.8831606,10.2013947 C11.6617379,10.7661353 11.7801376,10.6605679 12.5005804,11.320289 L12.5005804,11.320289 Z M46.2399455,26.0867306 C47.1445318,25.761256 47.1387488,25.7676082 48.0801638,25.5676652 C49.0215789,25.3643949 49.0824528,25.6438916 50.0217372,25.4397138 C50.9619348,25.2367459 50.9418464,25.150235 51.8832614,24.952107 C52.8216328,24.7491391 52.7890652,24.5894267 53.7301759,24.3849464 C54.6715909,24.181676 54.6798089,24.2264439 55.6197021,24.0280133 C56.560204,23.8232305 56.5842492,23.929403 57.5244467,23.7291575 C58.4631225,23.5246772 58.4667749,23.539499 59.4084943,23.3392535 C60.3483875,23.1362856 60.3334734,23.076696 61.2742797,22.8722157 C62.2153903,22.6692478 62.1922582,22.5733599 63.1345864,22.3752318 C64.0747839,22.170449 64.1551375,22.5479511 65.0965525,22.3434708 C65.9174372,22.1677266 66.2501131,20.9317703 65.6870295,20.3165145 C65.0381136,19.6050683 64.7373965,19.8767004 64.092133,19.1655566 C63.4441302,18.4559253 63.5966194,18.3195043 62.9528778,17.6089655 C62.3042662,16.8990317 62.462234,16.7577709 61.8194055,16.051467 C61.1680547,15.3400207 60.7979413,15.6778972 60.1517647,14.9700808 C59.5046751,14.259542 59.7280823,14.0605065 59.0816014,13.3505727 C58.4402947,12.6394289 58.6977914,12.4037926 58.0516148,11.6974886 C57.4045251,10.9860424 57.0094535,11.3472103 56.3620594,10.6393939 C55.7186222,9.92794763 55.8281952,9.82903483 55.1814099,9.12121843 C54.5364508,8.41279706 54.3173047,8.61062266 53.6699107,7.89978141 C53.0222123,7.19317495 53.1135232,7.11150383 52.4706947,6.40550234 C51.8245181,5.69556854 51.7578612,5.75939301 51.109554,5.04794678 C50.5443397,4.43269099 50.4512027,4.57758161 50.1927929,5.36948902 C49.899685,6.28027328 49.2428555,6.06944079 48.946704,6.98536731 C48.6529873,7.89494164 48.6155499,7.88011984 48.3230507,8.79150908 C48.0268992,9.70138589 48.0412045,9.70592317 47.7444442,10.6203373 C47.4473795,11.531424 47.6774829,11.6037181 47.3840707,12.5129899 C47.0879191,13.4222618 47.4586412,13.5405336 47.165229,14.449503 C46.8699905,15.3578674 46.6517575,15.292833 46.3546928,16.2002899 C46.0634112,17.1113766 46.2168134,17.1612868 45.9218793,18.0705586 C45.627554,18.9801329 44.97529,18.7726278 44.6782253,19.6822021 C44.3857262,20.5929864 45.193523,20.8485867 44.8998064,21.7596735 C44.6060897,22.6692478 44.2755444,22.5654952 43.9818278,23.4753721 C43.6856762,24.3849464 43.9285631,24.4617777 43.6354552,25.3716545 C43.3764367,26.1680992 43.5806687,26.9473022 44.4006403,26.7694407 C45.3444903,26.5707076 45.3079659,26.4209772 46.2399455,26.0867306 L46.2399455,26.0867306 Z M58.2244967,58.5664288 C58.6125679,57.6868006 58.6028281,57.7013199 59.0849495,56.8712993 C59.5695058,56.0424886 59.5862461,56.0582179 60.0689762,55.2297097 C60.5510976,54.4005966 60.7395024,54.5091889 61.2219281,53.6815882 C61.7043538,52.8518701 61.0953104,52.5031041 61.576823,51.674596 C62.05864,50.8472977 62.6156363,51.1703524 63.0974533,50.3406343 C63.5768353,49.5121261 63.0195347,49.1911888 63.4986124,48.3617732 C63.980125,47.5353824 64.1368753,47.6294555 64.6193011,46.7967125 C65.0965525,45.9688093 65.2070387,46.0308189 65.6879426,45.2029157 C66.1670203,44.3795498 66.3380759,44.4739253 66.8156318,43.6463246 C67.2977531,42.816304 67.235053,42.7803082 67.7165657,41.9539174 C68.1356825,41.2291618 67.7336104,40.8444001 66.8935504,40.8444001 C65.9286989,40.8444001 65.9286989,40.5500815 64.9702392,40.5500815 C64.0063008,40.5500815 64.0063008,40.802657 63.0426668,40.802657 C62.0772065,40.802657 62.0772065,40.6187458 61.117225,40.6187458 C60.1548084,40.6187458 60.1548084,41.0404108 59.1945225,41.0404108 C58.2293666,41.0404108 58.2293666,40.1864938 57.2678632,40.1864938 C56.3075773,40.1864938 56.3075773,41.0564425 55.3454651,41.0564425 C54.3821355,41.0564425 54.3821355,40.8071943 53.4188058,40.8071943 C52.459433,40.8071943 52.459433,40.171067 51.4967121,40.171067 C50.5339912,40.171067 50.5339912,40.5355622 49.5697484,40.5355622 C48.6112887,40.5355622 48.6112887,40.6541366 47.6476547,40.6541366 C46.6873688,40.6541366 46.6873688,40.2978085 45.7273872,40.2978085 C44.8833704,40.3023458 44.5908713,41.1701771 45.0130318,41.8940252 C45.4939357,42.7225334 45.325315,42.8166064 45.8077407,43.6463246 C46.291384,44.4739253 46.6097545,44.2930389 47.090354,45.1200346 C47.5709536,45.9482403 47.6732217,45.8904655 48.1532125,46.7232085 C48.6347252,47.5474819 48.0877731,47.8644868 48.568677,48.69239 C49.0501896,49.5205957 48.9573569,49.5717158 49.4388695,50.399619 C49.9215996,51.2278247 50.123701,51.1131826 50.6049093,51.9377585 C51.0882481,52.7668716 51.0882481,52.7668716 51.5648909,53.5953798 C52.0482297,54.4241904 52.5306555,54.1483235 53.0103419,54.9756218 C53.4924633,55.8044324 53.260838,55.9354087 53.7414376,56.7651268 C54.2205152,57.5912151 53.784658,57.845908 54.2643444,58.6698789 C54.7455527,59.4986896 55.3360296,59.1577882 55.8199772,59.9856914 C56.2390941,60.7065147 56.9248387,61.0180749 57.3457818,60.2951343 C57.8266857,59.4657186 57.8275988,59.4566441 58.2244967,58.5664288 L58.2244967,58.5664288 Z M46.05915,32.6881772 C46.4992684,32.2922235 46.5379233,31.6143532 46.1361555,31.1748416 L38.6237061,22.8815927 C38.2271126,22.4429886 37.5456292,22.4060853 37.1012496,22.8071813 C36.6614356,23.1985977 36.6264331,23.8749556 37.0260703,24.3171896 L44.5373022,32.6055986 C44.7500565,32.8418399 45.0431644,32.9646491 45.3396204,32.9646491 C45.5934646,32.9646491 45.8537005,32.872391 46.05915,32.6881772 L46.05915,32.6881772 Z M40.9719173,45.0801065 L46.5860137,35.42053 C46.8830784,34.9056995 46.7050222,34.2538429 46.1912464,33.9543821 C45.6765575,33.6603661 45.0212498,33.8364127 44.7217502,34.347311 L39.1061319,44.0120297 C38.8111978,44.5253478 38.9846884,45.1823466 39.5008992,45.4751527 C39.6683025,45.5686208 39.8557941,45.6200434 40.0365896,45.6200434 C40.4094423,45.6200434 40.7701202,45.4258476 40.9719173,45.0801065 L40.9719173,45.0801065 Z M38.3251196,45.9945206 C38.4477805,45.4155631 38.0797977,44.8450752 37.4951038,44.7234759 L26.514059,42.404621 C25.9324088,42.2845342 25.3629334,42.6505418 25.239055,43.2291969 C25.1170028,43.8039196 25.4855943,44.375315 26.0690707,44.4981241 L37.0495068,46.8190965 C37.1228599,46.8324058 37.1992566,46.8417829 37.2732184,46.8417829 C37.7739063,46.8417829 38.2210252,46.4978567 38.3251196,45.9945206 L38.3251196,45.9945206 Z M24.3770804,42.2799969 C24.9699923,42.2201048 25.3982402,41.6901499 25.3349314,41.1033278 L24.1643261,30.007852 C24.1004085,29.4183074 23.5708054,28.9930126 22.9803285,29.0522998 C22.3892428,29.1161243 21.9609949,29.6403319 22.02126,30.2304814 L23.1961265,41.3241423 C23.2530436,41.8755736 23.7214684,42.2845342 24.2662899,42.2845342 C24.3012924,42.2845342 24.3402517,42.2845342 24.3770804,42.2799969 L24.3770804,42.2799969 Z M25.0436497,28.4896765 L35.3005993,23.9517869 C35.8420728,23.7119158 36.0889165,23.0769985 35.8466383,22.5388765 C35.6007077,21.9950073 34.9685322,21.7569511 34.4267544,21.9950073 L24.1679785,26.5347118 C23.6243745,26.7760954 23.3796614,27.4076854 23.6228526,27.9476223 C23.8003001,28.3469033 24.1950674,28.5825396 24.6047488,28.5825396 C24.7517593,28.5825396 24.9024222,28.5550134 25.0436497,28.4896765 L25.0436497,28.4896765 Z M16.7876255,64.1415417 C15.9664365,63.9709398 15.9770894,63.8399635 16.5395644,63.218053 C17.1826972,62.5081192 16.8488038,62.2092634 17.4958935,61.4996321 C18.138722,60.7930256 18.3931749,61.0183774 19.0372209,60.3120735 C19.6800494,59.6021397 19.7543156,59.6711064 20.3983616,58.9593577 C21.0433207,58.2482139 20.7979988,58.0310292 21.4444797,57.3207929 C22.0870039,56.6054144 21.8267679,56.3761303 22.4738576,55.6668015 C23.1166861,54.9583801 23.0338975,54.885481 23.681596,54.1752448 C24.3253376,53.464101 24.351209,53.4882999 24.9961681,52.7756437 C25.6393009,52.0651049 25.9935871,52.3869497 26.63672,51.674596 C27.2844184,50.9655696 27.2481984,50.9289689 27.8892007,50.2244798 C28.5344641,49.5078913 28.7423485,49.69392 29.3870033,48.9815663 C30.031658,48.2737499 30.0130914,48.2543908 30.6543981,47.5432471 C31.2165687,46.9213366 31.31488,46.9676169 31.5735941,47.7604318 C31.8703545,48.6700061 32.6340177,48.4210604 32.9304736,49.3321472 C33.2293645,50.2399066 33.2053193,50.2498886 33.5045146,51.1609753 C33.8015793,52.0651049 33.3331545,52.2205825 33.6286974,53.1286444 C33.9245446,54.0376138 33.874628,54.0521331 34.1713883,54.9611025 C34.4687573,55.875819 34.5905052,55.8361934 34.8893961,56.740928 C35.1885913,57.6501998 34.9855769,57.7143268 35.2820328,58.6235986 C35.5794019,59.5349878 35.5233979,59.5522295 35.8195494,60.4624088 C36.1199622,61.3698657 36.5129033,61.2449392 36.807533,62.154816 C37.107337,63.0646928 36.7490941,63.17631 37.0452456,64.0873967 C37.3465715,64.9969711 37.6159385,64.9122751 37.9142207,65.8215469 C38.2103723,66.7296088 38.1726305,66.7504803 38.468782,67.6555174 C38.7305399,68.4510546 38.2210252,69.1485865 37.4007493,68.9725399 C36.4578124,68.7732018 36.4489857,68.8270443 35.5063532,68.6283112 C34.5649381,68.4241334 34.5408929,68.5375655 33.6013041,68.3364125 C32.6586716,68.1394944 32.7213717,67.8451759 31.7823917,67.6500726 C30.8418897,67.4489197 30.917069,67.0974314 29.9759584,66.8993033 C29.0333258,66.6990578 28.9389713,67.1564161 27.99573,66.957683 C27.0524888,66.7634872 27.0104858,66.9664551 26.0690707,66.7680245 C25.1273513,66.5686865 25.1985738,66.2323224 24.2598981,66.0344968 C23.3160481,65.8345538 23.3133088,65.8536104 22.3715894,65.6548773 C21.4301744,65.4558418 21.4624375,65.2961294 20.5249793,65.1007236 C19.5805206,64.902898 19.6270891,64.8036827 18.7072843,64.5175313 C17.7792616,64.2232128 17.7305624,64.344812 16.7876255,64.1415417 L16.7876255,64.1415417 Z" id="logo-epic-color"></path>
            </g>
        </g>
    </g>
</svg>