<?xml version="1.0" encoding="UTF-8"?>
<svg width="244px" height="61px" viewBox="0 0 244 61" version="1.1" xmlns="http://www.w3.org/2000/svg" xmlns:xlink="http://www.w3.org/1999/xlink">
    <!-- Generator: Sketch 55.2 (78181) - https://sketchapp.com -->
    <title>logo-epic-blanco</title>
    <desc>Created with Sketch.</desc>
    <g id="Diseño-IU" stroke="none" stroke-width="1" fill="none" fill-rule="evenodd">
        <g id="SERVICES" transform="translate(-68.000000, -51.000000)" fill="#FFFFFF">
            <g id="LOGO_EPIC" transform="translate(68.000000, 51.000000)">
                <g id="Group-3">
                    <path d="M242.760078,30.4570048 C242.32336,30.3492366 241.847088,30.2933469 241.330454,30.2933469 C239.98586,30.2933469 238.854915,30.6848422 237.935737,31.4675654 C237.016827,32.2486842 236.281969,33.3298424 235.730623,34.7113075 L235.593123,31.1156475 C235.581822,30.9228414 235.533118,30.7843205 235.446205,30.7057006 C235.360907,30.6246739 235.220178,30.5850965 235.024287,30.5850965 L234.163499,30.5850965 L231.675045,30.5850965 L231.675045,31.2667369 C231.675045,31.7039602 231.931209,31.8510383 232.357432,31.8716293 C232.574311,31.8820584 232.745984,31.8863371 234.163499,31.9422268 L234.163499,46.2633613 C232.745984,46.319251 232.573235,46.3235296 232.357432,46.3336914 C231.931209,46.3545497 231.675045,46.5016279 231.675045,46.9388511 L231.675045,47.6202242 L234.163499,47.6202242 L235.799777,47.6202242 L238.288232,47.6202242 L238.288232,46.9388511 C238.288232,46.5016279 238.030991,46.3545497 237.605844,46.3336914 C237.388965,46.3235296 237.215947,46.319251 235.799777,46.2633613 L235.799777,36.5425643 C236.31668,35.0367513 236.990996,33.8831237 237.824337,33.0854252 C238.656065,32.2861223 239.722161,31.8863371 241.019666,31.8863371 C241.375929,31.8863371 241.691829,31.9090673 241.967098,31.9545279 C242.242905,32.0002558 242.475391,32.0518669 242.665092,32.1077566 C242.854794,32.166053 243.012206,32.2176641 243.139212,32.2631246 C243.265411,32.3088525 243.363356,32.3315828 243.431971,32.3315828 C243.627055,32.3315828 243.741683,32.2403943 243.776125,32.0580174 L244,30.9273875 C243.609026,30.7220129 243.196526,30.5647729 242.760078,30.4570048 L242.760078,30.4570048 Z M221.646421,31.5258619 C222.427023,31.5258619 223.139816,31.6603715 223.782918,31.9296583 C224.425751,32.1970731 224.977097,32.5821505 225.436686,33.0835533 C225.896275,33.5868281 226.251461,34.1997429 226.504935,34.9247045 C226.757063,35.6499336 226.884069,36.468223 226.884069,37.3814447 L215.582157,37.3814447 C215.685753,36.4906858 215.894829,35.6871042 216.210729,34.9682931 C216.527705,34.2497495 216.940206,33.632556 217.451727,33.1185847 C217.962442,32.6048808 218.569218,32.2115135 219.269365,31.9379482 C219.969781,31.6625109 220.761684,31.5258619 221.646421,31.5258619 L221.646421,31.5258619 Z M221.628661,30.3099266 C220.411342,30.3099266 219.32345,30.5211843 218.364717,30.9436998 C217.405984,31.3662152 216.596321,31.952656 215.935729,32.7003479 C215.274867,33.4461679 214.769804,34.3366593 214.419461,35.3702177 C214.069118,36.403776 213.894216,37.5303947 213.894216,38.7506087 C213.894216,40.2007994 214.080689,41.4892041 214.453634,42.6118116 C214.82658,43.736291 215.358282,44.6872182 216.047128,45.4640583 C216.73705,46.2387591 217.563127,46.8289436 218.528318,47.2348794 C219.49324,47.6408151 220.561489,47.8419111 221.732795,47.8419111 C222.375897,47.8419111 223.01577,47.7796034 223.653491,47.6552555 C224.29148,47.5290357 224.888569,47.3613666 225.445028,47.1501089 C226.002562,46.9388511 226.508164,46.6840048 226.961295,46.3877092 C227.414696,46.0916809 227.779569,45.7705157 228.055645,45.4287595 L227.607357,44.8818962 C227.527171,44.7661056 227.412543,44.7099484 227.262396,44.7099484 C227.147768,44.7099484 226.964524,44.8032762 226.711051,44.9918037 C226.458922,45.1803311 226.116921,45.3915889 225.686931,45.6255769 C225.255326,45.8595648 224.724969,46.0708226 224.092361,46.25935 C223.46056,46.4478775 222.714669,46.5409379 221.852805,46.5409379 C220.88869,46.5409379 220.015794,46.3754081 219.234923,46.045953 C218.453244,45.714626 217.78727,45.2193737 217.236194,44.5650096 C216.684848,43.9085062 216.259701,43.0944954 215.96156,42.1251166 C215.662612,41.1535984 215.513542,40.0309909 215.513542,38.7506087 L215.513542,38.4254322 L227.900117,38.4254322 C228.060758,38.4254322 228.178615,38.3799717 228.253419,38.2887832 C228.327416,38.1975948 228.365087,38.0277864 228.365087,37.7750793 C228.365087,36.5778631 228.196374,35.5154239 227.857602,34.5915056 C227.517753,33.6675874 227.04767,32.886736 226.444392,32.2548347 C225.841114,31.6210616 225.129396,31.1386452 224.308163,30.8070508 C223.48693,30.4754564 222.593852,30.3117985 221.628661,30.3099266 L221.628661,30.3099266 Z M210.250869,30.5850965 L209.03032,30.5850965 L205.688612,30.5850965 L205.688612,31.2667369 C205.688612,31.6480705 205.916523,31.848899 206.372076,31.8716293 C206.421855,31.874036 206.482399,31.8759079 206.553167,31.8799191 C206.623935,31.8820584 206.707619,31.8863371 206.802335,31.8884764 C206.896244,31.8922202 207.068994,31.8989056 207.320315,31.9090673 C207.570559,31.9192291 207.848788,31.9296583 208.153926,31.9422268 L204.11799,44.4345111 C204.026233,44.6976474 203.954389,44.9522263 203.902187,45.1966434 C203.849178,45.4536291 203.799937,45.695907 203.756346,45.9237444 C203.653019,45.4453393 203.514442,44.9479476 203.3425,44.4345111 L198.812533,30.8752416 C198.731001,30.6246739 198.565517,30.4981866 198.312043,30.4981866 L197.640957,30.4981866 C197.399323,30.4981866 197.238682,30.6246739 197.158496,30.8752416 L192.558568,44.4345111 C192.466004,44.6995193 192.385549,44.950087 192.316665,45.1883536 C192.248049,45.4266202 192.185622,45.6670262 192.128308,45.9071647 C192.115662,45.8429851 192.069649,45.6028466 191.990539,45.1883536 C191.94345,44.9479476 191.879947,44.6976474 191.800838,44.4345111 L187.782661,31.9422268 C188.166908,31.9256471 188.504603,31.9130786 188.796287,31.9026494 C189.088239,31.8903483 189.273904,31.8841978 189.353821,31.8799191 C189.4332,31.8777798 189.504237,31.8759079 189.566664,31.8716293 C190.021947,31.848899 190.250128,31.6480705 190.250128,31.2667369 L190.250128,30.5850965 L186.873708,30.5850965 L185.617102,30.5850965 L184.246676,30.5850965 L184.246676,31.2667369 C184.246676,31.6480705 184.47378,31.848899 184.929064,31.8716293 C184.970771,31.874036 185.018668,31.8759079 185.073022,31.8777798 C185.128183,31.8799191 185.18765,31.8820584 185.251153,31.8841978 C185.316002,31.8863371 185.424172,31.8903483 185.576202,31.8964989 C185.727425,31.9026494 185.891026,31.9090673 186.064045,31.9152179 L191.352819,47.6202242 L192.507442,47.6202242 C192.714096,47.6202242 192.851327,47.4998875 192.919943,47.2600164 L197.675399,33.4271814 C197.732713,33.2552337 197.781955,33.0835533 197.821241,32.9137449 C197.859988,32.7498196 197.897391,32.5800112 197.933985,32.400041 C197.967082,32.5677101 198.007983,32.7396578 198.054533,32.9137449 C198.100546,33.0854252 198.151671,33.2552337 198.210331,33.4271814 L202.911972,47.2600164 C202.992427,47.4998875 203.124545,47.6202242 203.309134,47.6202242 L204.514883,47.6202242 L209.80285,31.9173572 C210.03399,31.9090673 210.246563,31.9007775 210.441647,31.8943595 C210.636192,31.8863371 210.765619,31.8820584 210.831275,31.8799191 C210.895854,31.8759079 210.955321,31.874036 211.009406,31.8716293 C211.46469,31.848899 211.692063,31.6480705 211.692063,31.2667369 L211.692063,30.5850965 L210.250869,30.5850965 Z M174.236888,46.5596569 C173.214383,46.5596569 172.321574,46.3836979 171.558731,46.0355238 C170.794812,45.6876171 170.157092,45.1883536 169.646378,44.5380007 C169.134587,43.8876478 168.750071,43.1025178 168.491485,42.1850175 C168.233168,41.2653779 168.104009,40.2355633 168.104009,39.0947716 C168.104009,37.9633394 168.233168,36.936199 168.491485,36.0122807 C168.750071,35.0883624 169.134587,34.2970819 169.646378,33.6405785 C170.157092,32.984075 170.794812,32.478661 171.558731,32.1264756 C172.321574,31.7724184 173.214383,31.5940527 174.236888,31.5940527 C175.259124,31.5940527 176.152471,31.7724184 176.916121,32.1264756 C177.68004,32.478661 178.316953,32.984075 178.828475,33.6405785 C179.339458,34.2970819 179.721821,35.0883624 179.973681,36.0122807 C180.226078,36.936199 180.353084,37.9633394 180.353084,39.0947716 C180.353084,40.2355633 180.226885,41.2653779 179.973681,42.1850175 C179.721821,43.1025178 179.339458,43.8876478 178.828475,44.5380007 C178.316953,45.1883536 177.68004,45.6876171 176.916121,46.0355238 C176.152471,46.3836979 175.259124,46.5596569 174.236888,46.5596569 L174.236888,46.5596569 Z M174.236888,30.3099266 C173.008267,30.3099266 171.908536,30.519045 170.937425,30.9354099 C169.96739,31.3520422 169.146157,31.9422268 168.473995,32.7086377 C167.802908,33.4729093 167.290848,34.3946883 166.941044,35.4737072 C166.590701,36.5508542 166.41553,37.758767 166.41553,39.0947716 C166.41553,40.4286368 166.590701,41.6338755 166.941044,42.7070113 C167.290848,43.7798796 167.802908,44.6976474 168.473995,45.4640583 C169.146157,46.2283299 169.96739,46.8166426 170.937425,47.2265895 C171.908536,47.6368039 173.008267,47.8419111 174.236888,47.8419111 C175.465509,47.8419111 176.566047,47.6368039 177.536082,47.2265895 C178.506386,46.8166426 179.32439,46.2283299 179.99144,45.4640583 C180.657414,44.6976474 181.164899,43.7798796 181.516318,42.7070113 C181.866123,41.6338755 182.041563,40.4286368 182.041563,39.0947716 C182.041563,37.758767 181.866123,36.5508542 181.516318,35.4737072 C181.164899,34.3946883 180.657414,33.4729093 179.99144,32.7086377 C179.32439,31.9422268 178.506386,31.3520422 177.536082,30.9354099 C176.566047,30.519045 175.465509,30.3099266 174.236888,30.3099266 L174.236888,30.3099266 Z M161.469834,42.0646808 C161.211516,42.9950171 160.826732,43.7924481 160.316017,44.4612526 C159.804495,45.1284527 159.170004,45.6461678 158.412274,46.0106542 C157.654544,46.3754081 156.770884,46.5575176 155.758873,46.5575176 C154.736636,46.5575176 153.826876,46.3588284 153.028245,45.9590432 C152.230422,45.559258 151.503905,44.8695951 150.849502,43.8876478 L150.849502,34.9498415 C151.561219,33.9015753 152.379224,33.0811466 153.304591,32.4928339 C154.228882,31.906928 155.259459,31.6127717 156.396862,31.6127717 C158.165258,31.6127717 159.518194,32.2093742 160.453517,33.4004399 C161.389648,34.593645 161.857309,36.4575264 161.857309,38.9907472 C161.857309,40.1096109 161.728151,41.1348794 161.469834,42.0646808 L161.469834,42.0646808 Z M161.788694,32.4682318 C160.617387,31.0183085 158.974921,30.2933469 156.861564,30.2933469 C155.598232,30.2933469 154.458407,30.5957931 153.44236,31.2006854 C152.426044,31.8053104 151.538348,32.6217279 150.780617,33.6491357 L150.625627,31.012158 C150.614057,30.8525113 150.561855,30.7428712 150.470099,30.6786917 C150.378342,30.6166514 150.257794,30.5850965 150.108724,30.5850965 L149.213224,30.5850965 L146.723693,30.5850965 L146.723693,31.2667369 C146.723693,31.6480705 146.951873,31.848899 147.407157,31.8716293 C147.45613,31.874036 147.517749,31.8759079 147.59067,31.8799191 C147.66386,31.8820584 147.750235,31.8863371 147.850333,31.8884764 C147.950161,31.8922202 148.124256,31.8989056 148.372348,31.9090673 C148.621248,31.9173572 148.900553,31.9296583 149.213224,31.9422268 L149.213224,52.2908918 C148.817407,52.3055996 148.476483,52.32004 148.190988,52.3304692 C147.905225,52.3408984 147.717676,52.3470489 147.629149,52.3513276 C147.540621,52.3553388 147.466624,52.3572107 147.407157,52.3596174 C146.951873,52.3820803 146.723693,52.5853155 146.723693,52.9642424 L146.723693,53.6458828 L149.213224,53.6458828 L150.849502,53.6458828 L153.333921,53.6458828 L153.333921,52.9642424 C153.333921,52.5853155 153.106817,52.3820803 152.651264,52.3614893 C152.602022,52.3572107 152.540941,52.3553388 152.467751,52.3531995 C152.395099,52.3491882 152.308456,52.3470489 152.208627,52.3427703 C152.107452,52.3387591 151.934165,52.3326085 151.687418,52.3243187 C151.440402,52.3138895 151.161097,52.3034603 150.849502,52.2908918 L150.849502,45.32527 C151.469463,46.1598717 152.204321,46.7874943 153.054615,47.2100098 C153.903833,47.6306533 154.914768,47.8419111 156.086074,47.8419111 C157.291823,47.8419111 158.356843,47.6140736 159.28248,47.1581313 C160.20677,46.7005845 160.985489,46.0769731 161.616751,45.2835533 C162.248283,44.4882615 162.727515,43.5541815 163.054986,42.4748952 C163.382187,41.3956089 163.545788,40.2355633 163.545788,38.9907472 C163.545788,36.09304 162.96,33.9181551 161.788694,32.4682318 L161.788694,32.4682318 Z M135.991693,44.8800243 C135.910431,44.7661056 135.795803,44.7099484 135.647001,44.7099484 C135.520803,44.7099484 135.350744,44.8072874 135.138171,44.9998261 C134.925597,45.1945041 134.638219,45.4057619 134.277652,45.6338667 C133.916008,45.8614367 133.456149,46.0729619 132.898884,46.2676399 C132.342157,46.4625853 131.650082,46.5575176 130.822929,46.5575176 C129.926623,46.5575176 129.111847,46.3919878 128.376989,46.0625327 C127.6424,45.7312057 127.015981,45.2485219 126.499346,44.6144813 C125.982443,43.9809756 125.583128,43.2019961 125.301401,42.2780779 C125.020481,41.354427 124.879752,40.2938597 124.879752,39.0947716 C124.879752,37.9406091 125.017252,36.9027721 125.293328,35.9772493 C125.568598,35.0533311 125.967644,34.2660618 126.490467,33.6157089 C127.013021,32.965356 127.655585,32.4663599 128.419773,32.1181858 C129.183692,31.7700116 130.05901,31.596192 131.046804,31.596192 C131.901403,31.596192 132.875743,31.7887307 133.969824,32.1783541 C133.994041,32.6359009 134.024178,33.0669736 134.057544,33.4710374 C134.091986,33.8767058 134.121047,34.1938598 134.145264,34.4257084 C134.169212,34.6556852 134.182666,34.7966128 134.18455,34.8439452 C134.213072,35.3972266 134.460895,35.6748032 134.928019,35.6748032 L135.765666,35.6748032 L135.765666,31.3787837 L134.86317,31.1113689 C134.261776,30.9332706 133.561629,30.7551723 132.760039,30.5792133 C131.959794,30.4011151 131.359475,30.3117985 130.961506,30.3117985 C129.720238,30.3117985 128.620776,30.525463 127.662043,30.9541289 C126.703309,31.3806556 125.893647,31.9834087 125.233054,32.7602488 C124.572193,33.535217 124.06982,34.4610072 123.725936,35.5336081 C123.380975,36.6067439 123.209032,37.7937984 123.209032,39.0947716 C123.209032,40.4762367 123.389316,41.7084842 123.752036,42.7917818 C124.11368,43.8772186 124.617937,44.792847 125.267228,45.5405389 C125.916518,46.2884983 126.691739,46.8578244 127.593158,47.2517265 C128.494846,47.6450937 129.490982,47.8419662 130.581833,47.8419662 C131.225204,47.8440504 131.843282,47.783882 132.433913,47.6638128 C133.02589,47.5437435 133.574276,47.3739351 134.079608,47.1581313 C134.584672,46.9409905 135.038342,46.6840048 135.440617,46.3877092 C135.841546,46.0916809 136.175206,45.7705157 136.439981,45.4287595 L135.991693,44.8800243 Z M115.913188,25.7571889 C116.051495,25.8938379 116.212136,26.0037454 116.395649,26.0823653 C116.578893,26.1609853 116.773976,26.2024346 116.981437,26.2024346 C117.187822,26.2024346 117.383712,26.1631246 117.566956,26.0823653 C117.750469,26.0016061 117.91084,25.8938379 118.049417,25.7571889 C118.186917,25.6202725 118.299662,25.4627652 118.38496,25.2868062 C118.471604,25.1087079 118.514119,24.9183085 118.514119,24.7132014 C118.514119,24.5080942 118.471604,24.3112768 118.38496,24.1227494 C118.298585,23.9342219 118.186917,23.770564 118.049417,23.6339151 C117.911917,23.4972661 117.751545,23.3894979 117.566956,23.309006 C117.382636,23.2301186 117.187822,23.1905412 116.981437,23.1884019 C116.775052,23.1884019 116.579969,23.2279793 116.395649,23.309006 C116.21106,23.3894979 116.050688,23.4972661 115.913188,23.6339151 C115.774612,23.770564 115.666172,23.9342219 115.585986,24.1227494 C115.5058,24.3091375 115.4649,24.5059549 115.4649,24.7132014 C115.4649,24.9183085 115.5058,25.1087079 115.585986,25.2868062 C115.666172,25.4627652 115.774612,25.6181332 115.913188,25.7571889 L115.913188,25.7571889 Z M119.596091,46.3336914 C119.548194,46.3318195 119.486575,46.3296801 119.413654,46.3256689 C119.339657,46.3235296 119.253013,46.319251 119.153184,46.3173791 C119.053086,46.3133678 118.878992,46.3069499 118.630899,46.2965207 C118.383884,46.2884983 118.103771,46.2759298 117.7911,46.2633613 L117.7911,30.5850965 L116.153746,30.5850965 L113.665291,30.5850965 L113.665291,31.2667369 C113.665291,31.6456637 113.893471,31.848899 114.348755,31.86949 C114.397728,31.874036 114.459347,31.8759079 114.532268,31.8777798 C114.605189,31.8820584 114.691832,31.8841978 114.79193,31.8884764 C114.892028,31.8922202 115.065854,31.8989056 115.313677,31.906928 C115.561769,31.9173572 115.842151,31.927519 116.153746,31.9400875 L116.153746,46.2633613 C115.759005,46.279941 115.418349,46.2925095 115.132586,46.3029387 C114.846016,46.3152397 114.659543,46.3213903 114.571015,46.3256689 C114.481412,46.3278082 114.407145,46.3318195 114.348755,46.3336914 C113.893471,46.356689 113.665291,46.5575176 113.665291,46.9388511 L113.665291,47.6202242 L116.153746,47.6202242 L117.7911,47.6202242 L120.279555,47.6202242 L120.279555,46.9388511 C120.279555,46.5575176 120.052451,46.356689 119.596091,46.3336914 L119.596091,46.3336914 Z M108.323239,42.0646808 C108.064922,42.9950171 107.680406,43.7924481 107.169692,44.4612526 C106.657901,45.1284527 106.02341,45.6461678 105.265679,46.0106542 C104.507949,46.3754081 103.624289,46.5575176 102.612547,46.5575176 C101.590042,46.5575176 100.680281,46.3588284 99.8821892,45.9590432 C99.0838279,45.559258 98.3575801,44.8695951 97.7029076,43.8876478 L97.7029076,34.9498415 C98.4148942,33.9015753 99.2328984,33.0811466 100.158266,32.4928339 C101.082826,31.906928 102.113403,31.6127717 103.250268,31.6127717 C105.018933,31.6127717 106.37133,32.2093742 107.307192,33.4004399 C108.243053,34.593645 108.710984,36.4575264 108.710984,38.9907472 C108.710984,40.1096109 108.581825,41.1348794 108.323239,42.0646808 L108.323239,42.0646808 Z M108.642099,32.4682318 C107.470793,31.0183085 105.828326,30.2933469 103.715239,30.2933469 C102.451906,30.2933469 101.311813,30.5957931 100.295766,31.2006854 C99.2794493,31.8053104 98.3917533,32.6217279 97.6340231,33.6491357 L97.4790328,31.012158 C97.4674623,30.8525113 97.4155298,30.7428712 97.3235044,30.6786917 C97.232017,30.6166514 97.1109309,30.5850965 96.9618604,30.5850965 L96.0668992,30.5850965 L93.577368,30.5850965 L93.577368,31.2667369 C93.577368,31.6480705 93.8055481,31.848899 94.260832,31.8716293 C94.3098046,31.874036 94.371155,31.8759079 94.4443448,31.8799191 C94.5172656,31.8820584 94.6036404,31.8863371 94.7037382,31.8884764 C94.8038361,31.8922202 94.977662,31.8989056 95.2257541,31.9090673 C95.4749225,31.9173572 95.7542279,31.9296583 96.0668992,31.9422268 L96.0668992,52.2908918 C95.670813,52.3055996 95.3301573,52.32004 95.044663,52.3304692 C94.7591688,52.3408984 94.5713507,52.3470489 94.4828233,52.3513276 C94.3942959,52.3553388 94.3202988,52.3572107 94.260832,52.3596174 C93.8055481,52.3820803 93.577368,52.5853155 93.577368,52.9642424 L93.577368,53.6458828 L96.0668992,53.6458828 L97.7029076,53.6458828 L100.187326,53.6458828 L100.187326,52.9642424 C100.187326,52.5853155 99.9602225,52.3820803 99.5046695,52.3614893 C99.455966,52.3572107 99.3940775,52.3553388 99.3214258,52.3531995 C99.248505,52.3491882 99.1621303,52.3470489 99.0620324,52.3427703 C98.9608582,52.3387591 98.7878395,52.3326085 98.5405547,52.3243187 C98.293808,52.3138895 98.0145026,52.3034603 97.7029076,52.2908918 L97.7029076,45.32527 C98.3231378,46.1598717 99.0577271,46.7874943 99.9080209,47.2100098 C100.757508,47.6306533 101.768173,47.8419111 102.939749,47.8419111 C104.145229,47.8419111 105.210249,47.6140736 106.135885,47.1581313 C107.059907,46.7005845 107.838626,46.0769731 108.470426,45.2835533 C109.101689,44.4882615 109.58119,43.5541815 109.908122,42.4748952 C110.235593,41.3956089 110.399463,40.2355633 110.399463,38.9907472 C110.399463,36.09304 109.813675,33.9181551 108.642099,32.4682318 L108.642099,32.4682318 Z M84.6024626,31.5258619 C85.3830647,31.5258619 86.0955894,31.6603715 86.7389605,31.9296583 C87.3817934,32.1970731 87.9328699,32.5821505 88.3924591,33.0835533 C88.8520483,33.5868281 89.2075034,34.1997429 89.460708,34.9247045 C89.7131054,35.6499336 89.8401113,36.468223 89.8401113,37.3814447 L78.5381992,37.3814447 C78.641257,36.4906858 78.8508705,35.6871042 79.1665018,34.9682931 C79.4832093,34.2497495 79.8959786,33.632556 80.4080384,33.1185847 C80.9184838,32.6048808 81.5249909,32.2115135 82.225407,31.9379482 C82.925554,31.6625109 83.7174574,31.5258619 84.6024626,31.5258619 L84.6024626,31.5258619 Z M84.5847033,30.3099266 C83.367653,30.3099266 82.2794921,30.5211843 81.3207589,30.9436998 C80.3620257,31.3662152 79.552363,31.952656 78.8915017,32.7003479 C78.2309095,33.4461679 77.7253075,34.3366593 77.375234,35.3702177 C77.0248914,36.403776 76.8499892,37.5303947 76.8499892,38.7506087 C76.8499892,40.2007994 77.0364619,41.4892041 77.4096763,42.6118116 C77.7828907,43.736291 78.3140553,44.6872182 79.0029009,45.4640583 C79.6928229,46.2387591 80.5194377,46.8289436 81.4843597,47.2348794 C82.4495509,47.6408151 83.5175307,47.8419111 84.6888374,47.8419111 C85.3316703,47.8419111 85.9715433,47.7796034 86.6095328,47.6552555 C87.2472532,47.5290357 87.8443425,47.3613666 88.4010697,47.1501089 C88.9586041,46.9388511 89.463937,46.6840048 89.9170682,46.3877092 C90.3704686,46.0916809 90.7353415,45.7705157 91.0114179,45.4287595 L90.5633992,44.8818962 C90.4832133,44.7661056 90.368316,44.7099484 90.2184382,44.7099484 C90.10381,44.7099484 89.9202972,44.8032762 89.6670926,44.9918037 C89.4149643,45.1803311 89.0732323,45.3915889 88.6424347,45.6255769 C88.211368,45.8595648 87.6810107,46.0708226 87.0481338,46.25935 C86.4168713,46.4478775 85.6704425,46.5409379 84.8088472,46.5409379 C83.8447324,46.5409379 82.9712977,46.3754081 82.1909647,46.045953 C81.4092863,45.714626 80.7435816,45.2193737 80.192236,44.5650096 C79.6408904,43.9085062 79.2157435,43.0944954 78.9176025,42.1251166 C78.6183851,41.1535984 78.4695837,40.0309909 78.4695837,38.7506087 L78.4695837,38.4254322 L90.8564277,38.4254322 C91.0167996,38.4254322 91.1343877,38.3799717 91.2094611,38.2887832 C91.2837272,38.1975948 91.3208603,38.0277864 91.3208603,37.7750793 C91.3208603,36.5778631 91.1518779,35.5154239 90.8133748,34.5915056 C90.4737954,33.6675874 90.0037121,32.886736 89.400434,32.2548347 C88.7968868,31.6210616 88.0851693,31.1386452 87.2639362,30.8070508 C86.442703,30.4754564 85.5496254,30.3117985 84.5847033,30.3099266 L84.5847033,30.3099266 Z M4.80884312,42.7008607 C5.54585415,42.2799498 5.32789908,41.8983488 6.0156684,41.4025617 C6.70397589,40.9062397 6.54979286,40.6941797 7.23567862,40.1978578 C7.9282914,39.7020707 7.91133934,39.6766663 8.59803234,39.1870297 C9.29037603,38.6848246 9.27046409,38.6623618 9.95823341,38.1665747 C10.6457337,37.6683808 10.8421623,37.9387372 11.5315461,37.4408108 C12.221199,36.9452911 12.251336,36.9848685 12.9385672,36.4888139 C13.6287582,35.9911549 13.5265077,35.8553082 14.2161606,35.3597885 C14.9036608,34.8637339 15.081792,35.1081511 15.7703686,34.6118292 C16.4578688,34.114705 16.3359754,33.9483729 17.0215921,33.4507139 C17.7096305,32.9584032 17.6864896,32.9231044 18.3756043,32.4254454 C18.9799587,31.9951749 18.8900859,31.525327 18.2122726,31.2260898 C17.4362449,30.8824618 17.6178741,30.4741193 16.8396938,30.1294216 C16.0636661,29.7844564 15.7762883,30.4222408 14.9970317,30.0767408 C14.2199277,29.7336476 14.3396684,29.4654305 13.5628335,29.1220699 C12.7846532,28.7771047 12.9385672,28.4412317 12.1622704,28.094662 C11.3835519,27.7526385 11.3509932,27.8248405 10.5760419,27.4814798 C9.79813062,27.135445 9.79813062,27.1308989 9.02317926,26.7888754 C8.24634435,26.4439102 8.19790989,26.5532829 7.41865325,26.2077829 C6.6437019,25.8630852 6.57131929,26.0283475 5.79260081,25.6841846 C5.0184567,25.3362779 5.13927377,25.0680609 4.36216977,24.7244328 C3.58533485,24.379735 3.39374966,24.8078662 2.6174529,24.4626336 C1.84196339,24.1152618 2.06583823,23.6138589 1.28981055,23.269696 C0.612266278,22.9707262 0.0216349513,23.5825714 0.0972465243,24.3160903 C0.186850275,25.1592493 -0.0682378792,25.1835841 0.018136907,26.0283475 C0.105857095,26.8680302 -0.0354100789,26.8838076 0.0536555107,27.7245599 C0.141913859,28.5653122 0.350989276,28.5457909 0.438978545,29.3846712 C0.526429652,30.2256909 0.733890587,30.2059022 0.822418016,31.0469219 C0.907447401,31.8879416 0.848787889,31.8946269 0.934086354,32.7340421 C1.02638091,33.5750618 1.11706098,33.5649001 1.20747197,34.4043152 C1.29303952,35.2437304 0.837217434,35.2918651 0.922515899,36.1326174 C1.01158149,36.9717651 1.22065691,36.9525113 1.31052974,37.7929961 C1.39609728,38.6318765 1.79299077,38.5944384 1.88178728,39.4333188 C1.97139103,40.2743384 1.93129806,40.2788845 2.01901825,41.1180323 C2.10539303,41.959052 2.23616608,41.9475531 2.3233481,42.7885728 C2.4013814,43.5207546 2.47726205,43.5801207 3.08107831,43.1477109 C3.7707312,42.6500519 4.05488003,43.1273874 4.80884312,42.7008607 L4.80884312,42.7008607 Z M11.0512377,10.0077918 C11.6760422,10.581664 11.4763846,10.8022813 12.1630776,11.297801 C12.8516542,11.7938555 13.0599224,11.5095935 13.7493062,12.0104615 C14.435461,12.5062486 14.3579659,12.6097382 15.0451971,13.106595 C15.735119,13.6069281 15.4280984,14.0224908 16.1153295,14.522824 C16.8049824,15.0188785 16.7888376,15.0386672 17.4766069,15.5406048 C18.1651835,16.0345201 18.3263626,15.8160421 19.0111721,16.3118293 C19.7021704,16.8121624 19.714279,16.7921063 20.4001647,17.2900327 C21.0884722,17.7842154 21.271985,17.5371241 21.9589471,18.0318415 C22.6469855,18.5292331 22.3491136,18.933297 23.0382283,19.4288167 C23.7262667,19.9283476 23.9802785,19.5847195 24.6661643,20.0805066 C25.2670207,20.5131838 25.9093154,20.4056831 25.9851961,19.6721642 C26.0758762,18.8314119 25.7354895,18.7963806 25.8237479,17.9553609 C25.9122753,17.1156783 26.2755338,17.1525815 26.3640612,16.3118293 C26.453934,15.4665309 26.0799124,15.4301625 26.1708615,14.5907473 C26.2585817,13.7497276 26.4453235,13.7711208 26.5368108,12.9263573 C26.6250691,12.0912208 26.4558176,12.0708973 26.5451523,11.230145 C26.6342178,10.3893927 26.8946876,10.4164016 26.9840223,9.57297523 C27.0720115,8.73596677 27.1244822,8.74024541 27.2151623,7.90083022 C27.3039588,7.06007795 26.818807,7.00766464 26.9113706,6.16664496 C26.9993599,5.32616011 27.1018795,5.33872861 27.1928286,4.49958084 C27.281356,3.65856116 27.3906027,3.66979258 27.478861,2.82930773 C27.5681957,1.98989254 27.9005099,2.02251715 27.9906518,1.18149747 C28.0708377,0.44904822 27.2334597,-0.227778746 26.5545701,0.0733303666 C25.7766588,0.414016876 25.8151373,0.501461529 25.0393787,0.845357016 C24.2614675,1.18871767 24.3825536,1.46549204 23.6054496,1.80591113 C22.826193,2.1495392 22.8283456,2.15328301 22.0504344,2.4971785 C21.2735995,2.84187623 21.3898422,3.10340795 20.6127382,3.44650119 C19.8359033,3.7871877 19.5748954,3.20636266 18.7961769,3.54999073 C18.0214946,3.89281656 18.2219595,4.33832969 17.4416265,4.68356225 C16.662908,5.02291168 16.706499,5.12265742 15.9304714,5.46762257 C15.1530983,5.80777425 15.1350699,5.76284855 14.3555442,6.10754628 C13.5784402,6.45090694 13.3177013,5.86259429 12.5397901,6.20622236 C11.7651078,6.55118751 11.7909395,6.60627497 11.0103375,6.95150753 C10.2370006,7.29593784 10.4194371,7.70026909 9.64071862,8.04496682 C8.96182895,8.34473886 9.02075754,8.58460997 9.62134484,9.01862426 C10.3096523,9.51788777 10.4143246,9.42455999 11.0512377,10.0077918 L11.0512377,10.0077918 Z M40.8787924,23.0621821 C41.6784991,22.7744437 41.6733866,22.7800595 42.5056521,22.6032982 C43.3379175,22.4235955 43.3917336,22.6706868 44.2221155,22.4901818 C45.0533047,22.3107464 45.0355454,22.2342658 45.8678108,22.059109 C46.6973855,21.8796737 46.6685939,21.7384786 47.5005903,21.5577062 C48.3328557,21.3780034 48.3401209,21.4175808 49.171041,21.2421567 C50.0024992,21.0611169 50.0237565,21.1549795 50.8549457,20.9779508 C51.6847894,20.7971784 51.6880184,20.8102817 52.5205529,20.6332531 C53.351473,20.4538177 53.338288,20.401137 54.1700154,20.2203646 C55.0020117,20.0409292 54.9815616,19.9561587 55.8146343,19.781002 C56.6458235,19.5999622 56.7168607,19.9336959 57.5491261,19.7529234 C58.2748358,19.5975554 58.5689406,18.5048984 58.071142,17.9609766 C57.4974627,17.3320169 57.2316114,17.5721554 56.6611611,16.9434631 C56.088289,16.3161079 56.2230983,16.1955038 55.6539934,15.5673463 C55.0805832,14.9397237 55.2202359,14.814841 54.6519382,14.1904273 C54.0761063,13.5614676 53.7489046,13.86017 53.1776471,13.2344192 C52.6055823,12.6062618 52.8030873,12.4303028 52.2315606,11.8026802 C51.6646084,11.1739879 51.8922504,10.9656717 51.3209928,10.3412581 C50.748928,9.71229836 50.3996618,10.0315917 49.8273279,9.40584095 C49.2584921,8.77688124 49.355361,8.68943659 48.7835653,8.06368586 C48.2133841,7.4374003 48.0196462,7.6122896 47.4473124,6.98386472 C46.8747094,6.35918365 46.9554335,6.28698164 46.3871359,5.6628354 C45.8158783,5.03521277 45.7569497,5.0916373 45.1838086,4.46267759 C44.6841264,3.9187558 44.6017879,4.04684751 44.3733387,4.74693957 C44.1142143,5.55212566 43.533539,5.36573751 43.2717238,6.17546965 C43.0120613,6.97958608 42.9789644,6.96648276 42.7203782,7.77220368 C42.458563,8.57658752 42.4712098,8.58059875 42.2088565,9.38899381 C41.9462341,10.1944473 42.1496588,10.2583595 41.8902654,11.0622085 C41.6284502,11.8660575 41.95619,11.9706167 41.6967966,12.7741983 C41.4357887,13.5772451 41.2428581,13.5197509 40.9802357,14.3219954 C40.7227258,15.1274489 40.8583423,15.1715724 40.5976035,15.9754214 C40.3374028,16.7795378 39.7607636,16.5960912 39.4981412,17.4002077 C39.239555,18.2053938 39.9536942,18.4313593 39.6940317,19.2368128 C39.4343692,20.0409292 39.1421479,19.9492059 38.8824854,20.7535898 C38.6206703,21.5577062 38.8353964,21.6256296 38.576272,22.4300134 C38.3472847,23.1341167 38.5278376,23.8229773 39.25274,23.6657374 C40.0871581,23.4900459 40.0548684,23.3576755 40.8787924,23.0621821 L40.8787924,23.0621821 Z M51.4738304,51.7761182 C51.8169079,50.9984759 51.8082973,51.0113118 52.2345205,50.2775255 C52.6628964,49.5448088 52.6776958,49.5587144 53.1044572,48.8262651 C53.5306805,48.093281 53.6972412,48.1892829 54.1237335,47.4576359 C54.5502259,46.724117 54.0117961,46.4157877 54.4374812,45.6833385 C54.8634354,44.9519589 55.3558524,45.2375579 55.7818065,44.504039 C56.2056081,43.7715898 55.712922,43.4878626 56.1364544,42.7546111 C56.5621395,42.0240338 56.7007159,42.1071998 57.1272082,41.3710067 C57.5491261,40.6390923 57.6468023,40.6939123 58.0719492,39.9619979 C58.4954817,39.2340947 58.6467048,39.3175281 59.0688919,38.5858811 C59.4951151,37.8520948 59.4396846,37.8202724 59.8653696,37.0896951 C60.2358933,36.4489691 59.8804381,36.1088174 59.1377764,36.1088174 C58.2847918,36.1088174 58.2847918,35.8486228 57.4374578,35.8486228 C56.5852804,35.8486228 56.5852804,36.0719142 55.7333721,36.0719142 C54.8798493,36.0719142 54.8798493,35.909326 54.0311699,35.909326 C53.1803379,35.909326 53.1803379,36.2821023 52.3313895,36.2821023 C51.4781357,36.2821023 51.4781357,35.5271902 50.628111,35.5271902 C49.7791625,35.5271902 49.7791625,36.2962753 48.9285996,36.2962753 C48.0769603,36.2962753 48.0769603,36.0759254 47.2253211,36.0759254 C46.3771799,36.0759254 46.3771799,35.513552 45.5260788,35.513552 C44.6749777,35.513552 44.6749777,35.8357869 43.8225312,35.8357869 C42.9751973,35.8357869 42.9751973,35.9406135 42.1232889,35.9406135 C41.2743405,35.9406135 41.2743405,35.6255988 40.4256611,35.6255988 C39.6795014,35.62961 39.4209152,36.3968232 39.7941296,37.0367469 C40.2192765,37.7691962 40.070206,37.8523622 40.4966983,38.5858811 C40.924267,39.3175281 41.205725,39.1576141 41.6306028,39.8887262 C42.0554807,40.6209081 42.1458917,40.5698318 42.5702314,41.3060249 C42.9959164,42.0347304 42.5123791,42.3149811 42.937526,43.0468955 C43.3632111,43.7790774 43.2811416,43.8242705 43.7068267,44.5561849 C44.1335881,45.2883667 44.3122574,45.1870165 44.7376734,45.9159894 C45.164973,46.6489735 45.164973,46.6489735 45.5863528,47.3814227 C46.0136524,48.1141394 46.4401447,47.870257 46.8642153,48.6016366 C47.2904385,49.3343533 47.0856684,49.4501439 47.5105462,50.1836628 C47.9340787,50.9139728 47.5487556,51.1391361 47.9728263,51.8675741 C48.3982423,52.6002908 48.9202581,52.2989142 49.3480958,53.0308287 C49.7186194,53.6680782 50.3248574,53.9435155 50.6969955,53.3043941 C51.1221424,52.5711426 51.1229497,52.5631201 51.4738304,51.7761182 L51.4738304,51.7761182 Z M40.7189587,28.8982436 C41.1080488,28.5481976 41.142222,27.9489209 40.787036,27.5603672 L34.1455953,20.2286544 C33.7949836,19.8409029 33.1925128,19.8082783 32.7996555,20.1628704 C32.4108344,20.5089052 32.3798902,21.1068448 32.7331926,21.4978053 L39.373557,28.8252394 C39.5616442,29.0340904 39.8207685,29.1426608 40.0828528,29.1426608 C40.3072658,29.1426608 40.5373295,29.0610993 40.7189587,28.8982436 L40.7189587,28.8982436 Z M36.22155,39.8534275 L41.1847367,31.3138019 C41.4473591,30.8586618 41.2899472,30.2823829 40.8357396,30.0176422 C40.3807247,29.7577149 39.8013948,29.9133504 39.5366197,30.365014 L34.5720876,38.9091857 C34.3113488,39.3629887 34.4647246,39.9438137 34.9210848,40.2026713 C35.069079,40.2853025 35.2348325,40.330763 35.3946662,40.330763 C35.7242896,40.330763 36.0431498,40.1590826 36.22155,39.8534275 L36.22155,39.8534275 Z M33.8816275,40.6618226 C33.9900669,40.1499905 33.6647487,39.6456462 33.1478454,39.5381454 L23.4399652,37.4881432 C22.9257527,37.3819795 22.4223034,37.7055515 22.3127877,38.2171161 C22.2048865,38.7252043 22.5307428,39.2303509 23.0465698,39.3389213 L32.7539118,41.3907954 C32.8187602,41.4025617 32.8862993,41.4108515 32.9516859,41.4108515 C33.394323,41.4108515 33.789602,41.1068009 33.8816275,40.6618226 L33.8816275,40.6618226 Z M21.5507522,37.3779683 C22.0749207,37.3250201 22.4535167,36.8565093 22.397548,36.3377246 L21.3626651,26.5286807 C21.3061582,26.0074892 20.8379584,25.6315039 20.3159426,25.6839172 C19.7933886,25.7403418 19.4147926,26.2037717 19.4680705,26.725498 L20.5067205,36.5329374 C20.5570386,37.0204346 20.9711532,37.3819795 21.452807,37.3819795 C21.4837512,37.3819795 21.5181935,37.3819795 21.5507522,37.3779683 L21.5507522,37.3779683 Z M22.1400382,25.1865256 L31.2077762,21.1747682 C31.6864701,20.9627082 31.9046943,20.4014044 31.6905063,19.9256734 C31.4730894,19.4448615 30.9142096,19.2344061 30.4352466,19.4448615 L21.365894,23.4582235 C20.8853166,23.6716205 20.668976,24.2299827 20.8839712,24.7073182 C21.040845,25.0603058 21.3898422,25.268622 21.7520243,25.268622 C21.8819901,25.268622 22.0151849,25.2442872 22.1400382,25.1865256 L22.1400382,25.1865256 Z M14.8412342,56.7048412 C14.1152554,56.5540192 14.1246733,56.4382286 14.6219337,55.8884237 C15.1905004,55.260801 14.8953193,54.9965952 15.4673841,54.36924 C16.0356818,53.7445589 16.2606329,53.9437829 16.8300069,53.3193693 C17.3983046,52.6917467 17.4639602,52.7527172 18.0333341,52.1234901 C18.6035154,51.4947978 18.3866366,51.302794 18.9581632,50.6749039 C19.5261918,50.0424678 19.2961281,49.8397674 19.8681929,49.2126796 C20.4364906,48.586394 20.3633007,48.521947 20.9359037,47.894057 C21.5050086,47.2653647 21.5278804,47.2867579 22.0980616,46.6567285 C22.6666284,46.028571 22.9798379,46.3131004 23.5484046,45.6833385 C24.1210076,45.0565181 24.088987,45.0241609 24.6556702,44.4013517 C25.2261205,43.7678459 25.4099023,43.9323061 25.9798145,43.3025441 C26.5497266,42.6767934 26.5333127,42.6596788 27.100265,42.0309865 C27.5972563,41.4811816 27.6841693,41.5220961 27.9128876,42.2229904 C28.1752409,43.0271068 28.8503635,42.8070244 29.1124477,43.6124779 C29.3766846,44.4149899 29.3554272,44.4238146 29.6199332,45.2292681 C29.8825556,46.028571 29.468441,46.1660223 29.729718,46.9688016 C29.9912641,47.7723832 29.9471349,47.7852191 30.2094882,48.5888007 C30.4723797,49.3974632 30.5800118,49.3624319 30.8442487,50.1622697 C31.1087547,50.9661187 30.9292781,51.0228106 31.1913623,51.8266596 C31.4542538,52.6323806 31.404743,52.6476232 31.6665582,53.4522745 C31.9321405,54.254519 32.2795232,54.1440767 32.5399929,54.9484605 C32.8050371,55.7528444 32.4883295,55.8515204 32.7501447,56.6569739 C33.0165342,57.4610904 33.2546703,57.3862142 33.518369,58.1900632 C33.7801842,58.9928426 33.7468182,59.0112942 34.0086334,59.8113994 C34.2400425,60.5147004 33.789602,61.1313591 33.0644305,60.9757236 C32.2308196,60.7994973 32.2230163,60.8470971 31.3896745,60.6714055 C30.5574091,60.4909005 30.5361517,60.5911811 29.7055007,60.4133502 C28.872159,60.2392632 28.9275895,59.9790685 28.0974767,59.8065859 C27.2660185,59.6287551 27.3324813,59.318019 26.5004849,59.1428623 C25.6671431,58.9658337 25.5837282,59.3701649 24.7498483,59.1944734 C23.9159683,59.022793 23.8788353,59.2022284 23.0465698,59.0268043 C22.2140352,58.8505779 22.277,58.5532126 21.4471563,58.3783233 C20.6127382,58.2015621 20.6103165,58.2184092 19.7777819,58.0427176 C18.9455165,57.8667587 18.974039,57.7255636 18.1452716,57.5528137 C17.3103153,57.3779243 17.3514846,57.2902123 16.5383238,57.0372378 C15.7178979,56.7770432 15.674845,56.884544 14.8412342,56.7048412 L14.8412342,56.7048412 Z" id="logo-epic-color"></path>
                </g>
            </g>
        </g>
    </g>
</svg>