<?xml version="1.0" encoding="UTF-8"?>
<svg width="36px" height="38px" viewBox="0 0 36 38" version="1.1" xmlns="http://www.w3.org/2000/svg" xmlns:xlink="http://www.w3.org/1999/xlink">
    <!-- Generator: Sketch 55.2 (78181) - https://sketchapp.com -->
    <title>lupa</title>
    <desc>Created with Sketch.</desc>
    <g id="Diseño-IU" stroke="none" stroke-width="1" fill="none" fill-rule="evenodd">
        <g id="HOME-SEARCH" transform="translate(-223.000000, -474.000000)" fill="#FFFFFF">
            <g id="LUPA" transform="translate(223.000000, 474.000000)">
                <path d="M2.8972,12.0052 C2.8972,6.9832 6.9852,2.8972 12.0072,2.8972 C17.0272,2.8972 21.1132,6.9832 21.1132,12.0052 C21.1132,14.5892 20.0272,16.9192 18.2952,18.5772 C18.2932,18.5792 18.2892,18.5792 18.2872,18.5812 C18.2852,18.5852 18.2852,18.5872 18.2812,18.5892 C16.6472,20.1492 14.4392,21.1152 12.0072,21.1152 C6.9852,21.1152 2.8972,17.0292 2.8972,12.0052 M34.8912,35.1112 L21.2152,19.6972 C22.9572,17.6132 24.0132,14.9312 24.0132,12.0052 C24.0132,5.3852 18.6252,-0.0008 12.0072,-0.0008 C5.3852,-0.0008 0.0012,5.3852 0.0012,12.0052 C0.0012,18.6272 5.3852,24.0132 12.0072,24.0132 C14.6592,24.0132 17.1052,23.1372 19.0972,21.6732 L32.7232,37.0332 C33.0112,37.3572 33.4092,37.5212 33.8072,37.5212 C34.1512,37.5212 34.4952,37.3992 34.7712,37.1552 C35.3672,36.6252 35.4232,35.7092 34.8912,35.1112" id="Fill-1"></path>
            </g>
        </g>
    </g>
</svg>